<svg width="807" height="129" viewBox="0 0 807 129" fill="none" xmlns="http://www.w3.org/2000/svg">
<g filter="url(#filter0_dii_2_280)">
<path d="M565.808 13.0613V21.4756C565.808 22.5802 566.703 23.4756 567.808 23.4756H578.017H588.227C589.332 23.4756 590.227 22.5802 590.227 21.4756V13.0613V4.64707C590.227 3.5425 589.332 2.64707 588.227 2.64707H578.017H567.808C566.703 2.64707 565.808 3.5425 565.808 4.64707V13.0613Z" fill="#2C65D6"/>
</g>
<g filter="url(#filter1_dii_2_280)">
<path d="M736.025 49.3314V91.8613C736.025 92.9659 736.921 93.8613 738.025 93.8613H747.517H757.009C758.113 93.8613 759.009 92.9659 759.009 91.8613V49.3314V6.80147C759.009 5.69689 758.113 4.80146 757.009 4.80146H747.517H738.025C736.921 4.80146 736.025 5.69689 736.025 6.80146V49.3314Z" fill="#2C65D6"/>
</g>
<g filter="url(#filter2_dii_2_280)">
<path d="M355.726 8.10387C335.759 12.3414 323.765 28.286 323.765 50.4791C323.765 77.628 340.499 94.5781 367.289 94.5781C377.201 94.5781 389.985 90.7715 395.3 86.1749L395.709 85.8401C396.402 85.2734 396.634 84.3155 396.277 83.4947L393.289 76.6225C391.35 72.0977 389.626 68.2911 389.482 68.1475C389.339 68.0038 387.328 69.0093 385.029 70.374C379.499 73.7496 374.184 75.1861 367.576 75.1861C354.361 75.1861 347.897 66.9983 347.897 50.4073C347.897 42.2914 349.19 37.4793 352.494 32.9544C358.383 24.7667 372.891 23.9766 385.101 31.0871C386.688 32.0293 388.138 32.8004 388.931 33.1638C389.324 33.3441 389.652 33.1741 389.831 32.7798C390.402 31.5153 391.78 28.4301 393.289 24.9103L396.277 18.0381C396.634 17.2174 396.402 16.2595 395.709 15.6928L395.3 15.3579C387.04 8.46298 369.444 5.23097 355.726 8.10387Z" fill="#2C65D6"/>
</g>
<g filter="url(#filter3_dii_2_280)">
<path d="M2 17.3704V25.0824C2 26.1807 2.88571 27.0735 3.984 27.0823L19.9556 27.2101L34.0167 27.3788C35.6449 27.3983 36.5686 29.2515 35.604 30.5634L19.9556 51.8452L2.45295 75.7444C2.20515 76.0828 2.06999 76.4905 2.06658 76.9098L2 85.099V91.8525C2 92.9605 2.90082 93.8574 4.00883 93.8525L34.5356 93.7177L65.0573 93.5151C66.1389 93.5079 67.0189 92.642 67.0435 91.5606L67.2148 84.0216L67.3845 76.499C67.4097 75.383 66.5164 74.4624 65.4001 74.4539L48.3973 74.3256L33.3434 74.1545C31.7128 74.136 30.7886 72.2786 31.7572 70.9667L47.6791 49.4032L65.5309 25.2259C65.7849 24.8819 65.922 24.4655 65.922 24.0379V16.2212V9.67436C65.922 8.56979 65.0266 7.67436 63.922 7.67436H33.961H4C2.89543 7.67436 2 8.56979 2 9.67436V17.3704Z" fill="#2C65D6"/>
</g>
<g filter="url(#filter4_dii_2_280)">
<path d="M620.607 14.9287L611.019 18.0828C610.221 18.3453 609.672 19.0781 609.645 19.9175L609.475 25.1275L609.32 29.8743C609.286 30.9229 608.447 31.7668 607.399 31.8076L603.729 31.9506L600.05 32.0921C598.976 32.1334 598.127 33.016 598.127 34.0906V40.713V47.3353C598.127 48.4099 598.976 49.2925 600.05 49.3338L603.729 49.4753L607.387 49.6178C608.44 49.6589 609.281 50.5101 609.309 51.5637L609.619 63.337C609.978 76.1214 610.121 77.2706 611.845 80.9335C614.502 86.6793 617.016 89.1931 622.403 91.8506C626.928 94.0771 627.574 94.2207 635.116 94.2207C639.497 94.1489 643.878 93.7898 645.027 93.287L645.779 92.953C646.501 92.632 646.966 91.9158 646.966 91.1254V83.591V77.1043C646.966 75.8489 645.823 74.9039 644.59 75.14L643.591 75.3314C639.209 76.1214 634.613 74.6132 633.392 71.8839C632.961 70.8066 632.602 65.9945 632.602 59.7459V51.3317C632.602 50.2271 633.497 49.3317 634.602 49.3317H639.784H644.966C646.071 49.3317 646.966 48.4362 646.966 47.3317V40.713V34.0943C646.966 32.9897 646.071 32.0943 644.966 32.0943H639.784H634.602C633.497 32.0943 632.602 31.1988 632.602 30.0943V21.68C632.602 15.9342 632.386 11.2657 632.099 11.3376C631.74 11.4094 626.64 12.9895 620.607 14.9287Z" fill="#2C65D6"/>
</g>
<g filter="url(#filter5_dii_2_280)">
<path d="M95.5124 32.0214C86.6783 35.3253 80.5015 41.5738 77.2695 50.5516C75.2585 56.2256 75.1149 67.2863 76.9822 73.3912C79.7833 82.7281 86.7501 89.6231 96.4461 92.6396C103.987 95.0098 115.982 94.8661 123.451 92.2805C129.844 90.054 134.368 87.5402 133.937 86.3911C133.794 85.9601 132.429 82.2972 130.921 78.3469L129.127 73.4005C128.686 72.1863 127.228 71.7018 126.148 72.4111L125.75 72.673C119.573 76.9105 108.153 78.3469 103.269 75.474C100.684 73.9658 98.7444 71.1647 97.9544 67.789C97.7332 66.7939 98.4905 65.8498 99.51 65.8498H116.197H132.871C133.976 65.8498 134.871 64.9544 134.871 63.8498V60.6068C134.871 48.2533 128.838 37.6954 119.142 33.027C115.623 31.375 114.043 31.0159 107.219 30.8723C100.755 30.6568 98.6008 30.8723 95.5124 32.0214ZM112.391 48.8279C113.253 49.6898 114.186 51.2699 114.402 52.3472C114.657 53.3687 113.885 54.3582 112.832 54.3582H106.573C101.043 54.3582 98.2417 54.0709 98.2417 53.5682C98.2417 51.9163 100.755 48.6124 102.838 47.5351C105.711 46.0986 110.308 46.6732 112.391 48.8279Z" fill="#2C65D6"/>
</g>
<g filter="url(#filter6_dii_2_280)">
<path d="M237.434 32.0212C232.263 33.745 229.031 35.756 225.799 39.2753C219.407 46.3857 219.981 58.6674 227.02 63.9822C230.467 66.6397 233.771 67.8607 242.821 69.8717C252.301 71.9545 254.528 72.7446 255.174 74.3247C256.108 76.6948 253.666 77.7003 247.058 77.6285C240.02 77.5567 234.92 76.2639 229.031 73.0319C227.322 72.0635 225.839 71.3211 225.263 71.0911C225.098 71.0252 224.968 71.0917 224.896 71.2541C223.978 73.3224 219.622 85.7075 219.622 86.3909C219.622 87.6837 226.876 91.3466 232.335 92.7112C238.655 94.3632 250.003 94.9377 255.964 93.9322C264.655 92.4239 270.975 88.4737 273.992 82.7997C275.5 79.855 276.003 72.9601 274.925 69.1535C273.776 64.9159 270.041 60.6784 265.804 58.6674C263.865 57.7337 258.047 55.9381 252.732 54.6453C241.672 51.9161 239.876 50.6951 243.683 48.1813C245.191 47.1758 246.627 47.0321 250.937 47.3913C255.964 47.7504 259.699 49.115 267.815 53.4243C268.102 53.568 269.682 50.2642 271.334 46.0266L273.875 39.7049C274.201 38.8937 273.962 37.9648 273.285 37.4112L272.843 37.0488C271.981 36.3306 268.605 34.7505 265.373 33.4577C260.13 31.3748 258.55 31.1594 250.506 30.8721C243.18 30.6566 240.81 30.8721 237.434 32.0212Z" fill="#2C65D6"/>
</g>
<g filter="url(#filter7_dii_2_280)">
<path d="M420.581 33.3847C411.244 38.1968 406.001 47.3901 405.139 60.4617C404.421 71.7379 408.156 82.2958 414.835 88.1852C423.095 95.4393 437.029 96.5884 445.863 90.6272L447.171 89.7464C448.16 89.0799 449.501 89.7254 449.598 90.9145L449.663 91.7008C449.748 92.7229 450.593 93.5149 451.618 93.5344L461.161 93.7155L470.399 93.8921C471.518 93.9135 472.437 93.012 472.437 91.8924V62.9755V34.0919C472.437 32.9873 471.542 32.0919 470.437 32.0919H460.946H451.454C450.349 32.0919 449.454 32.9873 449.454 34.0919V34.6775C449.454 35.7065 448.274 36.2893 447.457 35.6643L447.012 35.3239C442.846 32.1637 437.891 30.6554 431.57 30.6554C426.399 30.6554 425.393 30.8709 420.581 33.3847ZM444.642 49.9038C447.802 51.7712 449.454 56.0806 449.454 62.4728C449.454 68.9368 448.377 71.9533 445.216 74.6826C443.277 76.3345 442.2 76.6218 438.681 76.6218C435.018 76.6218 434.084 76.3345 432.001 74.4671C426.758 69.9423 426.327 57.3016 431.211 51.4839C434.299 47.821 439.973 47.1746 444.642 49.9038Z" fill="#2C65D6"/>
</g>
<g filter="url(#filter8_dii_2_280)">
<path d="M519.05 31.6629C515.603 32.9557 510.719 36.2595 510.216 37.5523C509.641 39.1324 508.349 38.7015 508.349 36.9059C508.349 36.0441 508.133 34.6076 507.918 33.6739C507.487 32.0938 507.271 32.0938 496.642 32.0938H488.196C486.971 32.0938 486.034 33.1842 486.218 34.3947L486.371 35.3977C486.586 37.2651 486.802 56.8008 486.802 78.8503V116.999C486.802 118.104 487.697 118.999 488.802 118.999H498.293H507.785C508.89 118.999 509.785 118.104 509.785 116.999V103.557C509.785 95.0821 510.072 88.1154 510.36 88.1154C510.719 88.1154 511.581 88.7618 512.227 89.48C515.962 93.5739 526.448 95.5131 534.205 93.5739C547.061 90.3419 554.387 79.353 554.53 63.3366C554.602 52.3478 552.017 45.0219 545.84 38.4142C540.669 32.8839 536.647 31.1601 528.459 30.8728C523.862 30.7292 520.774 31.0165 519.05 31.6629ZM526.52 49.9058C533.343 53.9279 533.271 71.9553 526.376 75.4746C523.359 77.0547 517.829 76.9111 515.028 75.1873C511.293 72.9608 510.216 70.0161 510.216 62.6184C510.216 55.8671 511.006 53.2096 513.951 50.5522C517.039 47.7511 522.354 47.4638 526.52 49.9058Z" fill="#2C65D6"/>
</g>
<g filter="url(#filter9_dii_2_280)">
<path d="M672.319 31.9506C664.705 35.039 658.385 42.2212 655.728 50.7681C654.004 56.4421 654.076 69.8729 655.871 75.1877C658.601 83.4473 663.413 88.9777 670.667 92.3533C673.971 93.8616 675.694 94.2207 681.081 94.2207C688.048 94.2207 692.07 93.0715 696.379 89.8395L696.414 89.8127C697.334 89.0939 698.678 89.7494 698.678 90.9169V91.8616C698.678 92.9662 699.573 93.8616 700.678 93.8616H710.169H719.661C720.765 93.8616 721.661 92.9662 721.661 91.8616V62.9779V34.0943C721.661 32.9897 720.765 32.0943 719.661 32.0943H710.169H700.678C699.573 32.0943 698.678 32.9897 698.678 34.0943V34.6799C698.678 35.7089 697.498 36.2917 696.681 35.6667L696.236 35.3263C690.274 30.7296 679.142 29.2214 672.319 31.9506ZM693.578 49.9781C697.241 52.5637 698.175 54.7183 698.534 61.1105C698.893 68.3646 698.031 71.453 694.655 74.4695C692.501 76.3369 691.639 76.6242 687.904 76.6242C684.169 76.6242 683.307 76.3369 681.153 74.3977C678.136 71.8121 677.131 68.6519 677.131 62.2597C677.203 52.851 682.015 47.3206 689.341 48.3261C690.705 48.5416 692.644 49.2598 693.578 49.9781Z" fill="#2C65D6"/>
</g>
<g filter="url(#filter10_dii_2_280)">
<path d="M146.363 51.2699C146.363 61.8996 146.722 72.6012 147.153 75.1149C149.093 87.3966 155.126 93.2142 166.976 94.2915C173.512 94.9379 178.612 93.717 182.705 90.5568C184.429 89.1921 186.009 88.1148 186.225 88.1148C186.44 88.1148 186.584 89.4076 186.584 90.9877V91.8606C186.584 92.9652 187.479 93.8606 188.584 93.8606H197.716H206.849C207.953 93.8606 208.849 92.9652 208.849 91.8606V62.9769V34.0933C208.849 32.9887 207.953 32.0933 206.849 32.0933H197.429H187.914C186.819 32.0933 185.927 32.9745 185.914 34.0699L185.722 50.5517C185.507 67.6454 185.363 69.2973 184.07 71.5956C180.766 77.2696 173.153 78.1315 170.639 73.0321C169.49 70.8056 169.346 68.1482 169.346 51.2699V34.0933C169.346 32.9887 168.451 32.0933 167.346 32.0933H157.855H148.363C147.259 32.0933 146.363 32.9887 146.363 34.0933V51.2699Z" fill="#2C65D6"/>
</g>
<g filter="url(#filter11_dii_2_280)">
<path d="M566.524 62.9777V91.8613C566.524 92.9659 567.42 93.8613 568.524 93.8613H578.016H587.508C588.612 93.8613 589.508 92.9659 589.508 91.8613V62.9777V34.094C589.508 32.9894 588.612 32.094 587.508 32.094H578.016H568.524C567.42 32.094 566.524 32.9894 566.524 34.094V62.9777Z" fill="#2C65D6"/>
</g>
<g filter="url(#filter12_dii_2_280)">
<path d="M772.656 82.0106V91.8613C772.656 92.9659 773.552 93.8613 774.656 93.8613H784.507H794.358C795.462 93.8613 796.358 92.9659 796.358 91.8613V82.0106V72.1599C796.358 71.0553 795.462 70.1599 794.358 70.1599H784.507H774.656C773.552 70.1599 772.656 71.0553 772.656 72.1599V82.0106Z" fill="#2C65D6"/>
</g>
<defs>
<filter id="filter0_dii_2_280" x="563.808" y="0.647095" width="36.4197" height="32.8285" filterUnits="userSpaceOnUse" color-interpolation-filters="sRGB">
<feFlood flood-opacity="0" result="BackgroundImageFix"/>
<feColorMatrix in="SourceAlpha" type="matrix" values="0 0 0 0 0 0 0 0 0 0 0 0 0 0 0 0 0 0 127 0" result="hardAlpha"/>
<feOffset dx="4" dy="4"/>
<feGaussianBlur stdDeviation="3"/>
<feComposite in2="hardAlpha" operator="out"/>
<feColorMatrix type="matrix" values="0 0 0 0 0 0 0 0 0 0 0 0 0 0 0 0 0 0 0.3 0"/>
<feBlend mode="normal" in2="BackgroundImageFix" result="effect1_dropShadow_2_280"/>
<feBlend mode="normal" in="SourceGraphic" in2="effect1_dropShadow_2_280" result="shape"/>
<feColorMatrix in="SourceAlpha" type="matrix" values="0 0 0 0 0 0 0 0 0 0 0 0 0 0 0 0 0 0 127 0" result="hardAlpha"/>
<feOffset dx="2" dy="2"/>
<feGaussianBlur stdDeviation="4"/>
<feComposite in2="hardAlpha" operator="arithmetic" k2="-1" k3="1"/>
<feColorMatrix type="matrix" values="0 0 0 0 1 0 0 0 0 1 0 0 0 0 1 0 0 0 0.4 0"/>
<feBlend mode="normal" in2="shape" result="effect2_innerShadow_2_280"/>
<feColorMatrix in="SourceAlpha" type="matrix" values="0 0 0 0 0 0 0 0 0 0 0 0 0 0 0 0 0 0 127 0" result="hardAlpha"/>
<feOffset dx="-2" dy="-2"/>
<feGaussianBlur stdDeviation="4"/>
<feComposite in2="hardAlpha" operator="arithmetic" k2="-1" k3="1"/>
<feColorMatrix type="matrix" values="0 0 0 0 0 0 0 0 0 0 0 0 0 0 0 0 0 0 0.4 0"/>
<feBlend mode="normal" in2="effect2_innerShadow_2_280" result="effect3_innerShadow_2_280"/>
</filter>
<filter id="filter1_dii_2_280" x="734.025" y="2.80151" width="34.9832" height="101.06" filterUnits="userSpaceOnUse" color-interpolation-filters="sRGB">
<feFlood flood-opacity="0" result="BackgroundImageFix"/>
<feColorMatrix in="SourceAlpha" type="matrix" values="0 0 0 0 0 0 0 0 0 0 0 0 0 0 0 0 0 0 127 0" result="hardAlpha"/>
<feOffset dx="4" dy="4"/>
<feGaussianBlur stdDeviation="3"/>
<feComposite in2="hardAlpha" operator="out"/>
<feColorMatrix type="matrix" values="0 0 0 0 0 0 0 0 0 0 0 0 0 0 0 0 0 0 0.3 0"/>
<feBlend mode="normal" in2="BackgroundImageFix" result="effect1_dropShadow_2_280"/>
<feBlend mode="normal" in="SourceGraphic" in2="effect1_dropShadow_2_280" result="shape"/>
<feColorMatrix in="SourceAlpha" type="matrix" values="0 0 0 0 0 0 0 0 0 0 0 0 0 0 0 0 0 0 127 0" result="hardAlpha"/>
<feOffset dx="2" dy="2"/>
<feGaussianBlur stdDeviation="4"/>
<feComposite in2="hardAlpha" operator="arithmetic" k2="-1" k3="1"/>
<feColorMatrix type="matrix" values="0 0 0 0 1 0 0 0 0 1 0 0 0 0 1 0 0 0 0.4 0"/>
<feBlend mode="normal" in2="shape" result="effect2_innerShadow_2_280"/>
<feColorMatrix in="SourceAlpha" type="matrix" values="0 0 0 0 0 0 0 0 0 0 0 0 0 0 0 0 0 0 127 0" result="hardAlpha"/>
<feOffset dx="-2" dy="-2"/>
<feGaussianBlur stdDeviation="4"/>
<feComposite in2="hardAlpha" operator="arithmetic" k2="-1" k3="1"/>
<feColorMatrix type="matrix" values="0 0 0 0 0 0 0 0 0 0 0 0 0 0 0 0 0 0 0.4 0"/>
<feBlend mode="normal" in2="effect2_innerShadow_2_280" result="effect3_innerShadow_2_280"/>
</filter>
<filter id="filter2_dii_2_280" x="321.765" y="5.05566" width="84.678" height="99.5225" filterUnits="userSpaceOnUse" color-interpolation-filters="sRGB">
<feFlood flood-opacity="0" result="BackgroundImageFix"/>
<feColorMatrix in="SourceAlpha" type="matrix" values="0 0 0 0 0 0 0 0 0 0 0 0 0 0 0 0 0 0 127 0" result="hardAlpha"/>
<feOffset dx="4" dy="4"/>
<feGaussianBlur stdDeviation="3"/>
<feComposite in2="hardAlpha" operator="out"/>
<feColorMatrix type="matrix" values="0 0 0 0 0 0 0 0 0 0 0 0 0 0 0 0 0 0 0.3 0"/>
<feBlend mode="normal" in2="BackgroundImageFix" result="effect1_dropShadow_2_280"/>
<feBlend mode="normal" in="SourceGraphic" in2="effect1_dropShadow_2_280" result="shape"/>
<feColorMatrix in="SourceAlpha" type="matrix" values="0 0 0 0 0 0 0 0 0 0 0 0 0 0 0 0 0 0 127 0" result="hardAlpha"/>
<feOffset dx="2" dy="2"/>
<feGaussianBlur stdDeviation="4"/>
<feComposite in2="hardAlpha" operator="arithmetic" k2="-1" k3="1"/>
<feColorMatrix type="matrix" values="0 0 0 0 1 0 0 0 0 1 0 0 0 0 1 0 0 0 0.4 0"/>
<feBlend mode="normal" in2="shape" result="effect2_innerShadow_2_280"/>
<feColorMatrix in="SourceAlpha" type="matrix" values="0 0 0 0 0 0 0 0 0 0 0 0 0 0 0 0 0 0 127 0" result="hardAlpha"/>
<feOffset dx="-2" dy="-2"/>
<feGaussianBlur stdDeviation="4"/>
<feComposite in2="hardAlpha" operator="arithmetic" k2="-1" k3="1"/>
<feColorMatrix type="matrix" values="0 0 0 0 0 0 0 0 0 0 0 0 0 0 0 0 0 0 0.4 0"/>
<feBlend mode="normal" in2="effect2_innerShadow_2_280" result="effect3_innerShadow_2_280"/>
</filter>
<filter id="filter3_dii_2_280" x="0" y="5.67432" width="77.385" height="98.1782" filterUnits="userSpaceOnUse" color-interpolation-filters="sRGB">
<feFlood flood-opacity="0" result="BackgroundImageFix"/>
<feColorMatrix in="SourceAlpha" type="matrix" values="0 0 0 0 0 0 0 0 0 0 0 0 0 0 0 0 0 0 127 0" result="hardAlpha"/>
<feOffset dx="4" dy="4"/>
<feGaussianBlur stdDeviation="3"/>
<feComposite in2="hardAlpha" operator="out"/>
<feColorMatrix type="matrix" values="0 0 0 0 0 0 0 0 0 0 0 0 0 0 0 0 0 0 0.3 0"/>
<feBlend mode="normal" in2="BackgroundImageFix" result="effect1_dropShadow_2_280"/>
<feBlend mode="normal" in="SourceGraphic" in2="effect1_dropShadow_2_280" result="shape"/>
<feColorMatrix in="SourceAlpha" type="matrix" values="0 0 0 0 0 0 0 0 0 0 0 0 0 0 0 0 0 0 127 0" result="hardAlpha"/>
<feOffset dx="2" dy="2"/>
<feGaussianBlur stdDeviation="4"/>
<feComposite in2="hardAlpha" operator="arithmetic" k2="-1" k3="1"/>
<feColorMatrix type="matrix" values="0 0 0 0 1 0 0 0 0 1 0 0 0 0 1 0 0 0 0.4 0"/>
<feBlend mode="normal" in2="shape" result="effect2_innerShadow_2_280"/>
<feColorMatrix in="SourceAlpha" type="matrix" values="0 0 0 0 0 0 0 0 0 0 0 0 0 0 0 0 0 0 127 0" result="hardAlpha"/>
<feOffset dx="-2" dy="-2"/>
<feGaussianBlur stdDeviation="4"/>
<feComposite in2="hardAlpha" operator="arithmetic" k2="-1" k3="1"/>
<feColorMatrix type="matrix" values="0 0 0 0 0 0 0 0 0 0 0 0 0 0 0 0 0 0 0.4 0"/>
<feBlend mode="normal" in2="effect2_innerShadow_2_280" result="effect3_innerShadow_2_280"/>
</filter>
<filter id="filter4_dii_2_280" x="596.127" y="9.33679" width="60.8394" height="94.8839" filterUnits="userSpaceOnUse" color-interpolation-filters="sRGB">
<feFlood flood-opacity="0" result="BackgroundImageFix"/>
<feColorMatrix in="SourceAlpha" type="matrix" values="0 0 0 0 0 0 0 0 0 0 0 0 0 0 0 0 0 0 127 0" result="hardAlpha"/>
<feOffset dx="4" dy="4"/>
<feGaussianBlur stdDeviation="3"/>
<feComposite in2="hardAlpha" operator="out"/>
<feColorMatrix type="matrix" values="0 0 0 0 0 0 0 0 0 0 0 0 0 0 0 0 0 0 0.3 0"/>
<feBlend mode="normal" in2="BackgroundImageFix" result="effect1_dropShadow_2_280"/>
<feBlend mode="normal" in="SourceGraphic" in2="effect1_dropShadow_2_280" result="shape"/>
<feColorMatrix in="SourceAlpha" type="matrix" values="0 0 0 0 0 0 0 0 0 0 0 0 0 0 0 0 0 0 127 0" result="hardAlpha"/>
<feOffset dx="2" dy="2"/>
<feGaussianBlur stdDeviation="4"/>
<feComposite in2="hardAlpha" operator="arithmetic" k2="-1" k3="1"/>
<feColorMatrix type="matrix" values="0 0 0 0 1 0 0 0 0 1 0 0 0 0 1 0 0 0 0.4 0"/>
<feBlend mode="normal" in2="shape" result="effect2_innerShadow_2_280"/>
<feColorMatrix in="SourceAlpha" type="matrix" values="0 0 0 0 0 0 0 0 0 0 0 0 0 0 0 0 0 0 127 0" result="hardAlpha"/>
<feOffset dx="-2" dy="-2"/>
<feGaussianBlur stdDeviation="4"/>
<feComposite in2="hardAlpha" operator="arithmetic" k2="-1" k3="1"/>
<feColorMatrix type="matrix" values="0 0 0 0 0 0 0 0 0 0 0 0 0 0 0 0 0 0 0.4 0"/>
<feBlend mode="normal" in2="effect2_innerShadow_2_280" result="effect3_innerShadow_2_280"/>
</filter>
<filter id="filter5_dii_2_280" x="73.667" y="28.798" width="71.2041" height="75.5253" filterUnits="userSpaceOnUse" color-interpolation-filters="sRGB">
<feFlood flood-opacity="0" result="BackgroundImageFix"/>
<feColorMatrix in="SourceAlpha" type="matrix" values="0 0 0 0 0 0 0 0 0 0 0 0 0 0 0 0 0 0 127 0" result="hardAlpha"/>
<feOffset dx="4" dy="4"/>
<feGaussianBlur stdDeviation="3"/>
<feComposite in2="hardAlpha" operator="out"/>
<feColorMatrix type="matrix" values="0 0 0 0 0 0 0 0 0 0 0 0 0 0 0 0 0 0 0.3 0"/>
<feBlend mode="normal" in2="BackgroundImageFix" result="effect1_dropShadow_2_280"/>
<feBlend mode="normal" in="SourceGraphic" in2="effect1_dropShadow_2_280" result="shape"/>
<feColorMatrix in="SourceAlpha" type="matrix" values="0 0 0 0 0 0 0 0 0 0 0 0 0 0 0 0 0 0 127 0" result="hardAlpha"/>
<feOffset dx="2" dy="2"/>
<feGaussianBlur stdDeviation="4"/>
<feComposite in2="hardAlpha" operator="arithmetic" k2="-1" k3="1"/>
<feColorMatrix type="matrix" values="0 0 0 0 1 0 0 0 0 1 0 0 0 0 1 0 0 0 0.4 0"/>
<feBlend mode="normal" in2="shape" result="effect2_innerShadow_2_280"/>
<feColorMatrix in="SourceAlpha" type="matrix" values="0 0 0 0 0 0 0 0 0 0 0 0 0 0 0 0 0 0 127 0" result="hardAlpha"/>
<feOffset dx="-2" dy="-2"/>
<feGaussianBlur stdDeviation="4"/>
<feComposite in2="hardAlpha" operator="arithmetic" k2="-1" k3="1"/>
<feColorMatrix type="matrix" values="0 0 0 0 0 0 0 0 0 0 0 0 0 0 0 0 0 0 0.4 0"/>
<feBlend mode="normal" in2="effect2_innerShadow_2_280" result="effect3_innerShadow_2_280"/>
</filter>
<filter id="filter6_dii_2_280" x="217.622" y="28.7979" width="67.8794" height="75.6318" filterUnits="userSpaceOnUse" color-interpolation-filters="sRGB">
<feFlood flood-opacity="0" result="BackgroundImageFix"/>
<feColorMatrix in="SourceAlpha" type="matrix" values="0 0 0 0 0 0 0 0 0 0 0 0 0 0 0 0 0 0 127 0" result="hardAlpha"/>
<feOffset dx="4" dy="4"/>
<feGaussianBlur stdDeviation="3"/>
<feComposite in2="hardAlpha" operator="out"/>
<feColorMatrix type="matrix" values="0 0 0 0 0 0 0 0 0 0 0 0 0 0 0 0 0 0 0.3 0"/>
<feBlend mode="normal" in2="BackgroundImageFix" result="effect1_dropShadow_2_280"/>
<feBlend mode="normal" in="SourceGraphic" in2="effect1_dropShadow_2_280" result="shape"/>
<feColorMatrix in="SourceAlpha" type="matrix" values="0 0 0 0 0 0 0 0 0 0 0 0 0 0 0 0 0 0 127 0" result="hardAlpha"/>
<feOffset dx="2" dy="2"/>
<feGaussianBlur stdDeviation="4"/>
<feComposite in2="hardAlpha" operator="arithmetic" k2="-1" k3="1"/>
<feColorMatrix type="matrix" values="0 0 0 0 1 0 0 0 0 1 0 0 0 0 1 0 0 0 0.4 0"/>
<feBlend mode="normal" in2="shape" result="effect2_innerShadow_2_280"/>
<feColorMatrix in="SourceAlpha" type="matrix" values="0 0 0 0 0 0 0 0 0 0 0 0 0 0 0 0 0 0 127 0" result="hardAlpha"/>
<feOffset dx="-2" dy="-2"/>
<feGaussianBlur stdDeviation="4"/>
<feComposite in2="hardAlpha" operator="arithmetic" k2="-1" k3="1"/>
<feColorMatrix type="matrix" values="0 0 0 0 0 0 0 0 0 0 0 0 0 0 0 0 0 0 0.4 0"/>
<feBlend mode="normal" in2="effect2_innerShadow_2_280" result="effect3_innerShadow_2_280"/>
</filter>
<filter id="filter7_dii_2_280" x="403.052" y="28.6554" width="79.3853" height="75.7977" filterUnits="userSpaceOnUse" color-interpolation-filters="sRGB">
<feFlood flood-opacity="0" result="BackgroundImageFix"/>
<feColorMatrix in="SourceAlpha" type="matrix" values="0 0 0 0 0 0 0 0 0 0 0 0 0 0 0 0 0 0 127 0" result="hardAlpha"/>
<feOffset dx="4" dy="4"/>
<feGaussianBlur stdDeviation="3"/>
<feComposite in2="hardAlpha" operator="out"/>
<feColorMatrix type="matrix" values="0 0 0 0 0 0 0 0 0 0 0 0 0 0 0 0 0 0 0.3 0"/>
<feBlend mode="normal" in2="BackgroundImageFix" result="effect1_dropShadow_2_280"/>
<feBlend mode="normal" in="SourceGraphic" in2="effect1_dropShadow_2_280" result="shape"/>
<feColorMatrix in="SourceAlpha" type="matrix" values="0 0 0 0 0 0 0 0 0 0 0 0 0 0 0 0 0 0 127 0" result="hardAlpha"/>
<feOffset dx="2" dy="2"/>
<feGaussianBlur stdDeviation="4"/>
<feComposite in2="hardAlpha" operator="arithmetic" k2="-1" k3="1"/>
<feColorMatrix type="matrix" values="0 0 0 0 1 0 0 0 0 1 0 0 0 0 1 0 0 0 0.4 0"/>
<feBlend mode="normal" in2="shape" result="effect2_innerShadow_2_280"/>
<feColorMatrix in="SourceAlpha" type="matrix" values="0 0 0 0 0 0 0 0 0 0 0 0 0 0 0 0 0 0 127 0" result="hardAlpha"/>
<feOffset dx="-2" dy="-2"/>
<feGaussianBlur stdDeviation="4"/>
<feComposite in2="hardAlpha" operator="arithmetic" k2="-1" k3="1"/>
<feColorMatrix type="matrix" values="0 0 0 0 0 0 0 0 0 0 0 0 0 0 0 0 0 0 0.4 0"/>
<feBlend mode="normal" in2="effect2_innerShadow_2_280" result="effect3_innerShadow_2_280"/>
</filter>
<filter id="filter8_dii_2_280" x="484.195" y="28.8365" width="80.3369" height="100.162" filterUnits="userSpaceOnUse" color-interpolation-filters="sRGB">
<feFlood flood-opacity="0" result="BackgroundImageFix"/>
<feColorMatrix in="SourceAlpha" type="matrix" values="0 0 0 0 0 0 0 0 0 0 0 0 0 0 0 0 0 0 127 0" result="hardAlpha"/>
<feOffset dx="4" dy="4"/>
<feGaussianBlur stdDeviation="3"/>
<feComposite in2="hardAlpha" operator="out"/>
<feColorMatrix type="matrix" values="0 0 0 0 0 0 0 0 0 0 0 0 0 0 0 0 0 0 0.3 0"/>
<feBlend mode="normal" in2="BackgroundImageFix" result="effect1_dropShadow_2_280"/>
<feBlend mode="normal" in="SourceGraphic" in2="effect1_dropShadow_2_280" result="shape"/>
<feColorMatrix in="SourceAlpha" type="matrix" values="0 0 0 0 0 0 0 0 0 0 0 0 0 0 0 0 0 0 127 0" result="hardAlpha"/>
<feOffset dx="2" dy="2"/>
<feGaussianBlur stdDeviation="4"/>
<feComposite in2="hardAlpha" operator="arithmetic" k2="-1" k3="1"/>
<feColorMatrix type="matrix" values="0 0 0 0 1 0 0 0 0 1 0 0 0 0 1 0 0 0 0.4 0"/>
<feBlend mode="normal" in2="shape" result="effect2_innerShadow_2_280"/>
<feColorMatrix in="SourceAlpha" type="matrix" values="0 0 0 0 0 0 0 0 0 0 0 0 0 0 0 0 0 0 127 0" result="hardAlpha"/>
<feOffset dx="-2" dy="-2"/>
<feGaussianBlur stdDeviation="4"/>
<feComposite in2="hardAlpha" operator="arithmetic" k2="-1" k3="1"/>
<feColorMatrix type="matrix" values="0 0 0 0 0 0 0 0 0 0 0 0 0 0 0 0 0 0 0.4 0"/>
<feBlend mode="normal" in2="effect2_innerShadow_2_280" result="effect3_innerShadow_2_280"/>
</filter>
<filter id="filter9_dii_2_280" x="652.479" y="28.5911" width="79.1821" height="75.6296" filterUnits="userSpaceOnUse" color-interpolation-filters="sRGB">
<feFlood flood-opacity="0" result="BackgroundImageFix"/>
<feColorMatrix in="SourceAlpha" type="matrix" values="0 0 0 0 0 0 0 0 0 0 0 0 0 0 0 0 0 0 127 0" result="hardAlpha"/>
<feOffset dx="4" dy="4"/>
<feGaussianBlur stdDeviation="3"/>
<feComposite in2="hardAlpha" operator="out"/>
<feColorMatrix type="matrix" values="0 0 0 0 0 0 0 0 0 0 0 0 0 0 0 0 0 0 0.3 0"/>
<feBlend mode="normal" in2="BackgroundImageFix" result="effect1_dropShadow_2_280"/>
<feBlend mode="normal" in="SourceGraphic" in2="effect1_dropShadow_2_280" result="shape"/>
<feColorMatrix in="SourceAlpha" type="matrix" values="0 0 0 0 0 0 0 0 0 0 0 0 0 0 0 0 0 0 127 0" result="hardAlpha"/>
<feOffset dx="2" dy="2"/>
<feGaussianBlur stdDeviation="4"/>
<feComposite in2="hardAlpha" operator="arithmetic" k2="-1" k3="1"/>
<feColorMatrix type="matrix" values="0 0 0 0 1 0 0 0 0 1 0 0 0 0 1 0 0 0 0.4 0"/>
<feBlend mode="normal" in2="shape" result="effect2_innerShadow_2_280"/>
<feColorMatrix in="SourceAlpha" type="matrix" values="0 0 0 0 0 0 0 0 0 0 0 0 0 0 0 0 0 0 127 0" result="hardAlpha"/>
<feOffset dx="-2" dy="-2"/>
<feGaussianBlur stdDeviation="4"/>
<feComposite in2="hardAlpha" operator="arithmetic" k2="-1" k3="1"/>
<feColorMatrix type="matrix" values="0 0 0 0 0 0 0 0 0 0 0 0 0 0 0 0 0 0 0.4 0"/>
<feBlend mode="normal" in2="effect2_innerShadow_2_280" result="effect3_innerShadow_2_280"/>
</filter>
<filter id="filter10_dii_2_280" x="144.363" y="30.0933" width="74.4856" height="74.3657" filterUnits="userSpaceOnUse" color-interpolation-filters="sRGB">
<feFlood flood-opacity="0" result="BackgroundImageFix"/>
<feColorMatrix in="SourceAlpha" type="matrix" values="0 0 0 0 0 0 0 0 0 0 0 0 0 0 0 0 0 0 127 0" result="hardAlpha"/>
<feOffset dx="4" dy="4"/>
<feGaussianBlur stdDeviation="3"/>
<feComposite in2="hardAlpha" operator="out"/>
<feColorMatrix type="matrix" values="0 0 0 0 0 0 0 0 0 0 0 0 0 0 0 0 0 0 0.3 0"/>
<feBlend mode="normal" in2="BackgroundImageFix" result="effect1_dropShadow_2_280"/>
<feBlend mode="normal" in="SourceGraphic" in2="effect1_dropShadow_2_280" result="shape"/>
<feColorMatrix in="SourceAlpha" type="matrix" values="0 0 0 0 0 0 0 0 0 0 0 0 0 0 0 0 0 0 127 0" result="hardAlpha"/>
<feOffset dx="2" dy="2"/>
<feGaussianBlur stdDeviation="4"/>
<feComposite in2="hardAlpha" operator="arithmetic" k2="-1" k3="1"/>
<feColorMatrix type="matrix" values="0 0 0 0 1 0 0 0 0 1 0 0 0 0 1 0 0 0 0.4 0"/>
<feBlend mode="normal" in2="shape" result="effect2_innerShadow_2_280"/>
<feColorMatrix in="SourceAlpha" type="matrix" values="0 0 0 0 0 0 0 0 0 0 0 0 0 0 0 0 0 0 127 0" result="hardAlpha"/>
<feOffset dx="-2" dy="-2"/>
<feGaussianBlur stdDeviation="4"/>
<feComposite in2="hardAlpha" operator="arithmetic" k2="-1" k3="1"/>
<feColorMatrix type="matrix" values="0 0 0 0 0 0 0 0 0 0 0 0 0 0 0 0 0 0 0.4 0"/>
<feBlend mode="normal" in2="effect2_innerShadow_2_280" result="effect3_innerShadow_2_280"/>
</filter>
<filter id="filter11_dii_2_280" x="564.524" y="30.094" width="34.9832" height="73.7673" filterUnits="userSpaceOnUse" color-interpolation-filters="sRGB">
<feFlood flood-opacity="0" result="BackgroundImageFix"/>
<feColorMatrix in="SourceAlpha" type="matrix" values="0 0 0 0 0 0 0 0 0 0 0 0 0 0 0 0 0 0 127 0" result="hardAlpha"/>
<feOffset dx="4" dy="4"/>
<feGaussianBlur stdDeviation="3"/>
<feComposite in2="hardAlpha" operator="out"/>
<feColorMatrix type="matrix" values="0 0 0 0 0 0 0 0 0 0 0 0 0 0 0 0 0 0 0.3 0"/>
<feBlend mode="normal" in2="BackgroundImageFix" result="effect1_dropShadow_2_280"/>
<feBlend mode="normal" in="SourceGraphic" in2="effect1_dropShadow_2_280" result="shape"/>
<feColorMatrix in="SourceAlpha" type="matrix" values="0 0 0 0 0 0 0 0 0 0 0 0 0 0 0 0 0 0 127 0" result="hardAlpha"/>
<feOffset dx="2" dy="2"/>
<feGaussianBlur stdDeviation="4"/>
<feComposite in2="hardAlpha" operator="arithmetic" k2="-1" k3="1"/>
<feColorMatrix type="matrix" values="0 0 0 0 1 0 0 0 0 1 0 0 0 0 1 0 0 0 0.4 0"/>
<feBlend mode="normal" in2="shape" result="effect2_innerShadow_2_280"/>
<feColorMatrix in="SourceAlpha" type="matrix" values="0 0 0 0 0 0 0 0 0 0 0 0 0 0 0 0 0 0 127 0" result="hardAlpha"/>
<feOffset dx="-2" dy="-2"/>
<feGaussianBlur stdDeviation="4"/>
<feComposite in2="hardAlpha" operator="arithmetic" k2="-1" k3="1"/>
<feColorMatrix type="matrix" values="0 0 0 0 0 0 0 0 0 0 0 0 0 0 0 0 0 0 0.4 0"/>
<feBlend mode="normal" in2="effect2_innerShadow_2_280" result="effect3_innerShadow_2_280"/>
</filter>
<filter id="filter12_dii_2_280" x="770.656" y="68.1599" width="35.7014" height="35.7014" filterUnits="userSpaceOnUse" color-interpolation-filters="sRGB">
<feFlood flood-opacity="0" result="BackgroundImageFix"/>
<feColorMatrix in="SourceAlpha" type="matrix" values="0 0 0 0 0 0 0 0 0 0 0 0 0 0 0 0 0 0 127 0" result="hardAlpha"/>
<feOffset dx="4" dy="4"/>
<feGaussianBlur stdDeviation="3"/>
<feComposite in2="hardAlpha" operator="out"/>
<feColorMatrix type="matrix" values="0 0 0 0 0 0 0 0 0 0 0 0 0 0 0 0 0 0 0.3 0"/>
<feBlend mode="normal" in2="BackgroundImageFix" result="effect1_dropShadow_2_280"/>
<feBlend mode="normal" in="SourceGraphic" in2="effect1_dropShadow_2_280" result="shape"/>
<feColorMatrix in="SourceAlpha" type="matrix" values="0 0 0 0 0 0 0 0 0 0 0 0 0 0 0 0 0 0 127 0" result="hardAlpha"/>
<feOffset dx="2" dy="2"/>
<feGaussianBlur stdDeviation="4"/>
<feComposite in2="hardAlpha" operator="arithmetic" k2="-1" k3="1"/>
<feColorMatrix type="matrix" values="0 0 0 0 1 0 0 0 0 1 0 0 0 0 1 0 0 0 0.4 0"/>
<feBlend mode="normal" in2="shape" result="effect2_innerShadow_2_280"/>
<feColorMatrix in="SourceAlpha" type="matrix" values="0 0 0 0 0 0 0 0 0 0 0 0 0 0 0 0 0 0 127 0" result="hardAlpha"/>
<feOffset dx="-2" dy="-2"/>
<feGaussianBlur stdDeviation="4"/>
<feComposite in2="hardAlpha" operator="arithmetic" k2="-1" k3="1"/>
<feColorMatrix type="matrix" values="0 0 0 0 0 0 0 0 0 0 0 0 0 0 0 0 0 0 0.4 0"/>
<feBlend mode="normal" in2="effect2_innerShadow_2_280" result="effect3_innerShadow_2_280"/>
</filter>
</defs>
</svg>
