<svg width="902" height="133" viewBox="0 0 902 133" fill="none" xmlns="http://www.w3.org/2000/svg">
<path d="M442.723 60.9999H484.223C494.697 70.8906 492.571 108.01 496.724 109C515.144 109.563 527.276 119.391 537.224 126C543.108 110.51 557.724 105.5 572.224 107.533C570.736 71.4702 584.419 62.2422 615.724 50.9999C620.224 15.4999 662.223 -1.50012 693.223 33.9999C731.692 7.26642 773.223 44.9998 773.223 61.9999C791.928 53.1231 801.729 52.1617 817.224 61.9999C823.224 15.9998 873.224 18.9998 893.724 50.9999C917.877 111.594 887.354 140.048 767.223 133H624.224H354.224H80.7234C-22.1834 128.188 -4.77637 104 18.2235 67.9998C33.7236 47.4998 51.7286 50.4464 72.7235 73.4999C84.0797 57.4726 92.8129 54.4011 113.224 60.9999C113.224 45.4998 147.724 9.99976 186.224 31.4999C207.724 -13.5001 257.848 -8.30989 270.224 40.4999C300.915 49.1423 313.101 58.1738 317.224 88.9999C345.793 84.5461 352.521 93.3976 362.224 112C368.724 104 397.12 94.6444 408.724 104C420.577 93.8497 434.095 94.7004 439.224 95.4999C439.045 99.1747 436.562 68.1011 442.723 60.9999Z" fill="#B3C9F5"/>
</svg>
