<svg width="703" height="133" viewBox="0 0 703 133" fill="none" xmlns="http://www.w3.org/2000/svg">
<path d="M313.726 60.9999H355.226C365.699 70.8906 363.574 108.01 367.726 109C386.147 109.563 398.279 119.391 408.226 126C414.111 110.51 428.727 105.5 443.226 107.533C441.739 71.4702 455.421 62.2422 486.726 50.9999C491.227 15.4999 533.226 -1.50012 564.226 33.9999C579.43 16.2692 631.719 22.5853 644.226 61.9999C726.448 123.26 718.316 136.096 638.226 133H495.227H225.226H57.2265C12.6178 128.017 4.61759 114.316 15.7265 73.4999C-28.7735 22.4998 39.2266 22.9998 57.2265 31.4999C78.7265 -13.5001 128.851 -8.30989 141.226 40.4999C171.918 49.1423 184.104 58.1738 188.226 88.9999C216.796 84.5461 223.524 93.3976 233.226 112C239.726 104 268.123 94.6444 279.727 104C291.58 93.8497 305.098 94.7004 310.227 95.4999C310.048 99.1747 307.565 68.1011 313.726 60.9999Z" fill="#B3C9F5"/>
</svg>
