<svg width="1440" height="222" viewBox="0 0 1440 222" fill="none" xmlns="http://www.w3.org/2000/svg">
<g id="Group 1">
<path id="Rectangle 37" d="M701.719 150H743.219C753.692 159.891 751.567 197.01 755.719 198C774.14 198.563 786.271 208.391 796.219 215C802.104 199.51 816.719 194.5 831.219 196.533C829.731 160.47 843.414 151.242 874.719 140C879.219 104.5 921.219 87.5001 952.219 123C990.687 96.2667 1032.22 134 1032.22 151C1050.92 142.123 1060.72 141.162 1076.22 151C1086.94 86.708 1155.52 129.137 1152.72 140C1174.72 112 1224.22 117 1233.72 145C1243.6 127.347 1285.41 147.252 1279.72 155C1302.58 135.016 1316.52 141.664 1341.22 151C1356.72 121 1397.72 123 1418.72 145C1427 134 1436.5 138 1440 145V453.5L1026.22 456.5H883.22H613.22H339.72H-22.28V131C10.22 80 64.72 112.5 71.72 137.5C97.8198 124.453 107.768 130.484 124.72 143.5C132.22 128 179.22 122.5 185.22 143.5C214.22 105.5 267.22 120.5 277.22 157C283.154 149.282 319.456 128.091 331.72 162.5C343.076 146.473 351.809 143.401 372.22 150C372.22 134.5 406.72 99 445.22 120.5C466.72 75.5002 516.844 80.6904 529.219 129.5C559.911 138.143 572.096 147.174 576.219 178C604.789 173.546 611.516 182.398 621.219 201C627.719 193 656.116 183.645 667.719 193C679.572 182.85 693.091 183.701 698.219 184.5C698.041 188.175 695.557 157.101 701.719 150Z" fill="#B3C9F5"/>
<rect id="Rectangle 36" x="701.22" y="150" width="43" height="900" fill="#B3C9F5"/>
<path id="Polygon 1" d="M724.175 195.832C723.251 197.025 721.542 197.11 720.521 195.999C714.575 189.529 697.216 168.471 703.326 149C723.533 149 724.836 149 741.554 149C746.375 165.376 729.721 188.683 724.175 195.832Z" fill="#9CB5E9"/>
<path id="Polygon 2" d="M723.746 178.997C723.173 179.735 722.116 179.788 721.483 179.1C717.802 175.094 707.054 162.056 710.837 150C723.348 150 724.155 150 734.507 150C737.491 160.139 727.18 174.57 723.746 178.997Z" fill="#7FAAFF"/>
<g id="Group 3">
<path id="Vector" fill-rule="evenodd" clip-rule="evenodd" d="M754.849 46.2913L753.885 41.878C748.09 27.0133 738.576 13.6724 726.377 3.30694C726.377 3.30694 725.055 2.18682 723.998 1.28677C722.933 2.17256 721.6 3.2754 721.6 3.2754C709.287 13.5116 699.628 26.7449 693.672 41.55L692.129 46.0155L698.789 46.0155L749.202 46.2913L754.849 46.2913Z" fill="white"/>
<g id="Vector_2">
<path fill-rule="evenodd" clip-rule="evenodd" d="M724.167 30.2757C722.223 30.2642 720.632 31.8378 720.62 33.7836C720.61 35.7265 722.181 37.3131 724.128 37.3266C726.069 37.3361 727.662 35.7667 727.672 33.8217C727.683 31.8767 726.11 30.2872 724.167 30.2757ZM722.476 33.7943C722.471 34.7135 723.217 35.4674 724.138 35.4725C725.056 35.4771 725.812 34.7366 725.818 33.8138C725.826 32.888 725.076 32.1393 724.156 32.1342C723.236 32.1269 722.483 32.8693 722.476 33.7943Z" fill="#2C65D6"/>
<path fill-rule="evenodd" clip-rule="evenodd" d="M735.95 30.3404C734.002 30.3313 732.415 31.9011 732.405 33.8475C732.394 35.7912 733.963 37.3786 735.913 37.3905C737.856 37.4006 739.447 35.8306 739.457 33.8878C739.467 31.9427 737.895 30.3533 735.95 30.3404ZM734.26 33.859C734.255 34.7796 734.999 35.5315 735.921 35.5394C736.843 35.5437 737.594 34.7985 737.602 33.8763C737.605 32.9529 736.86 32.2018 735.94 32.2002C735.016 32.1932 734.263 32.9343 734.26 33.859Z" fill="#2C65D6"/>
<path fill-rule="evenodd" clip-rule="evenodd" d="M711.441 30.2073C709.502 30.197 707.912 31.7683 707.901 33.7155C707.89 35.6584 709.462 37.2451 711.406 37.2579C713.351 37.2708 714.939 35.6989 714.951 33.7544C714.959 31.8074 713.386 30.2166 711.441 30.2073ZM709.752 33.7251C709.747 34.6456 710.495 35.3974 711.413 35.4019C712.337 35.4068 713.091 34.6657 713.098 33.7421C713.103 32.818 712.353 32.0692 711.432 32.0649C710.512 32.059 709.759 32.8001 709.752 33.7251Z" fill="#2C65D6"/>
<path fill-rule="evenodd" clip-rule="evenodd" d="M754.844 46.296L753.88 41.8826C748.085 27.018 738.571 13.6771 726.372 3.3116C726.372 3.3116 725.051 2.19149 723.993 1.29144C722.928 2.17723 721.595 3.28007 721.595 3.28007C709.282 13.5163 699.623 26.7496 693.668 41.5546L692.125 46.0201L698.784 46.0201L749.197 46.296L754.844 46.296ZM723.951 8.69338C715.027 16.3922 707.708 25.7801 702.363 36.2296C701.561 37.7923 700.799 39.3783 700.092 40.9894C705.174 41.0148 742.391 41.2211 747.464 41.25C746.322 38.5843 745.035 35.9824 743.65 33.4398C738.578 24.1475 731.935 15.7291 723.951 8.69338Z" fill="#2C65D6"/>
</g>
</g>
<g id="Group 4">
<path id="Vector_3" fill-rule="evenodd" clip-rule="evenodd" d="M764.462 98.7838L759.496 90.364L759.572 89.7425C759.998 86.1272 760.218 82.5079 760.235 78.9976C760.292 68.9335 758.791 58.9755 755.766 49.3993C755.766 49.3993 755.281 47.9218 754.998 46.9666C754.415 44.9996 753.688 41.879 753.688 41.879L693.475 41.551L692.106 46.6216L691.312 49.044C688.187 58.5883 686.571 68.5309 686.518 78.5949C686.496 82.2909 686.7 86.1013 687.134 89.9183L687.203 90.5441L682.491 98.3373C676.732 107.853 673.741 118.714 673.68 129.65C673.648 135.498 674.45 141.369 676.12 147.07C677.495 151.758 679.433 156.283 681.889 160.527C681.889 160.527 682.698 161.925 683.346 163.047C685.086 162.538 689.128 161.351 691.311 160.71C690.634 158.643 689.484 155.126 689.484 155.126C688.643 152.256 688.241 149.329 688.256 146.427C688.295 139.141 690.977 132.007 696.012 126.312L697.733 124.362L699.017 126.627L700.188 128.66L701.673 131.137L700.867 132.143C697.538 136.303 695.489 141.274 694.947 146.52C694.947 146.52 694.712 148.782 694.52 150.591L750.469 150.898C750.3 149.089 750.094 146.828 750.094 146.828C749.627 141.834 747.816 137.061 744.842 133.031L744.106 132.023L746.015 128.918L747.378 126.602L748.764 124.468L750.453 126.387C755.532 132.155 758.194 139.383 758.153 146.792C758.137 149.748 757.692 152.731 756.798 155.661L754.996 160.967C756.571 161.493 758.537 162.148 758.537 162.148C758.537 162.148 761.295 162.995 762.902 163.484C763.561 162.369 764.389 160.978 764.389 160.978C766.882 156.78 768.874 152.275 770.304 147.587C772.037 141.909 772.902 136.05 772.934 130.202C772.992 119.261 770.119 108.368 764.462 98.7838Z" fill="white"/>
<g id="Vector_4">
<path fill-rule="evenodd" clip-rule="evenodd" d="M763.029 139.705C763.032 139.716 763.034 139.726 763.036 139.737C763.039 139.746 763.041 139.755 763.043 139.764C763.046 139.777 763.049 139.789 763.052 139.802C763.054 139.809 763.055 139.816 763.057 139.823C763.057 139.827 763.058 139.831 763.059 139.835C763.06 139.84 763.061 139.844 763.062 139.849L763.063 139.856C763.064 139.865 763.066 139.874 763.067 139.883C763.174 140.435 763.263 140.994 763.339 141.552C763.398 141.953 763.451 142.353 763.495 142.758L763.501 142.819C763.504 142.846 763.507 142.873 763.51 142.899C763.553 143.295 763.594 143.687 763.619 144.082C763.681 144.87 763.712 145.653 763.714 146.443C763.715 146.481 763.717 146.52 763.719 146.559C763.721 146.609 763.724 146.659 763.723 146.706C763.724 146.711 763.724 146.717 763.723 146.723C763.723 146.729 763.722 146.735 763.723 146.74C763.723 146.745 763.723 146.749 763.724 146.754L763.724 146.76C763.725 146.765 763.725 146.771 763.726 146.777C763.726 146.781 763.726 146.786 763.726 146.79C763.726 146.797 763.726 146.804 763.726 146.811L763.725 146.82C763.722 147.608 763.641 148.4 763.561 149.194C763.539 149.409 763.517 149.624 763.497 149.839C763.605 149.561 763.715 149.284 763.825 149.007C764.238 147.966 764.649 146.928 764.973 145.857C765.327 144.698 765.627 143.528 765.9 142.351C765.981 142.006 766.06 141.654 766.127 141.303C766.295 140.535 766.434 139.76 766.564 138.985C766.665 138.399 766.758 137.81 766.838 137.221C766.962 136.339 767.062 135.459 767.14 134.57M710.447 72.9797C710.486 65.8378 716.332 60.0561 723.478 60.0954C730.622 60.1354 736.405 65.981 736.365 73.1215C736.324 80.2619 730.48 86.0463 723.334 86.0071C716.19 85.9706 710.408 80.1207 710.447 72.9797ZM712.303 72.9903C712.27 79.1105 717.224 84.1172 723.346 84.1522C729.47 84.1857 734.476 79.2345 734.51 73.1135C734.542 66.9898 729.59 61.9823 723.468 61.9508C717.347 61.9158 712.337 66.8672 712.303 72.9903Z" fill="#2C65D6"/>
<path fill-rule="evenodd" clip-rule="evenodd" d="M764.462 98.7874L759.496 90.3677L759.572 89.7462C759.998 86.1308 760.218 82.5115 760.235 79.0013C760.292 68.9371 758.791 58.9791 755.766 49.403C755.766 49.403 755.281 47.9254 754.998 46.9703C754.415 45.0033 753.688 41.8827 753.688 41.8827L693.475 41.5547L692.106 46.6252L691.312 49.0476C688.187 58.5919 686.571 68.5346 686.518 78.5985C686.496 82.2945 686.7 86.1049 687.134 89.922L687.203 90.5477L682.491 98.341C676.732 107.857 673.741 118.718 673.68 129.654C673.648 135.502 674.45 141.372 676.12 147.073C677.495 151.762 679.433 156.287 681.889 160.53C681.889 160.53 682.698 161.929 683.346 163.051C685.086 162.541 689.128 161.355 691.311 160.714C690.634 158.647 689.484 155.129 689.484 155.129C688.643 152.26 688.241 149.333 688.256 146.43C688.295 139.145 690.977 132.01 696.012 126.315L697.733 124.366L699.017 126.631L700.188 128.664L701.673 131.14L700.867 132.147C697.538 136.307 695.489 141.278 694.947 146.524C694.947 146.524 694.712 148.785 694.52 150.595L750.469 150.901C750.3 149.093 750.094 146.832 750.094 146.832C749.627 141.838 747.816 137.065 744.842 133.035L744.106 132.026L746.015 128.922L747.378 126.606L748.764 124.472L750.453 126.391C755.532 132.158 758.194 139.386 758.153 146.795C758.137 149.752 757.692 152.735 756.798 155.665L754.996 160.971C756.571 161.497 758.537 162.152 758.537 162.152C758.537 162.152 761.295 162.998 762.902 163.488C763.561 162.372 764.389 160.981 764.389 160.981C766.882 156.784 768.874 152.279 770.304 147.591C772.037 141.913 772.902 136.054 772.934 130.206C772.992 119.264 770.119 108.372 764.462 98.7874ZM682.701 146.322C682.701 146.304 682.701 146.282 682.696 146.26C682.745 137.933 689.089 125.55 694.621 118.964C693.969 117.55 689.502 103.757 688.364 99.2478C687.174 101.657 682.92 110.267 682.076 112.798C680.735 116.838 679.849 121.007 679.464 125.228L679.435 125.509C679.319 126.889 679.247 128.279 679.243 129.667C679.222 134.95 679.955 140.245 681.459 145.4C681.792 146.528 682.217 147.628 682.642 148.725C682.728 148.948 682.814 149.171 682.899 149.394C682.882 149.194 682.863 148.993 682.844 148.793C682.768 147.986 682.692 147.176 682.696 146.377L682.696 146.371C682.696 146.367 682.697 146.363 682.698 146.358C682.699 146.346 682.701 146.333 682.701 146.322ZM700.881 144.95C702.377 144.958 708.437 144.991 715.588 145.03C727.221 145.094 741.739 145.173 744.171 145.188C744.017 144.388 743.818 143.599 743.579 142.828C742.777 140.238 741.508 137.815 739.782 135.652L705.381 135.462C703.72 137.502 702.473 139.785 701.64 142.223C701.489 142.662 701.355 143.099 701.229 143.541C701.221 143.569 701.214 143.598 701.206 143.627C701.191 143.686 701.175 143.746 701.159 143.806C701.057 144.187 700.965 144.566 700.881 144.95ZM707.134 130.426C709.2 130.439 737.192 130.592 739.257 130.603C750.647 115.736 754.576 95.1873 754.672 78.8808C754.68 76.7132 754.606 74.5566 754.463 72.4074C754.336 70.5335 754.139 68.6706 753.899 66.8126C753.833 66.3092 753.776 65.8022 753.702 65.292C753.677 65.1698 753.643 65.0416 753.636 64.916C753.22 58.6837 750.3 50.5374 749.005 46.296L698.592 46.0202C696.256 50.6295 693.987 60.2075 693.271 64.5842C693.249 64.7103 693.221 64.8374 693.202 64.9597C693.126 65.468 693.063 65.9748 692.99 66.4779C692.727 68.3319 692.509 70.1921 692.364 72.0656C692.192 74.2287 692.095 76.3963 692.082 78.5721C692.005 94.858 697.943 115.445 707.134 130.426ZM767.14 134.57C767.173 134.246 767.198 133.92 767.222 133.597C767.298 132.428 767.355 131.257 767.366 130.089C767.366 130.069 767.365 130.05 767.365 130.03C767.364 130.015 767.364 130 767.363 129.985C767.363 129.971 767.362 129.956 767.362 129.942C767.359 129.882 767.357 129.822 767.357 129.763C767.358 128.971 767.335 128.183 767.301 127.392C767.273 126.868 767.236 126.346 767.196 125.82C767.171 125.501 767.146 125.183 767.114 124.861C766.654 120.076 765.558 115.357 763.875 110.811C763.242 109.116 759.976 100.801 759.187 99.1597C757.571 105.275 754.964 114.691 752.257 120.416C756.167 125.18 761.877 133.895 763.029 139.705C763.032 139.716 763.034 139.726 763.036 139.737C763.039 139.746 763.041 139.755 763.043 139.764C763.046 139.777 763.049 139.789 763.052 139.802C763.054 139.809 763.055 139.816 763.057 139.823C763.057 139.827 763.058 139.831 763.059 139.835C763.06 139.84 763.061 139.844 763.062 139.849L763.063 139.856C763.064 139.865 763.066 139.874 763.067 139.883C763.174 140.435 763.263 140.994 763.339 141.552C763.398 141.953 763.451 142.353 763.495 142.758L763.501 142.819L763.51 142.899C763.553 143.295 763.594 143.687 763.619 144.082C763.681 144.87 763.712 145.653 763.714 146.443C763.715 146.481 763.717 146.52 763.719 146.559C763.721 146.609 763.724 146.659 763.723 146.706C763.724 146.711 763.724 146.717 763.723 146.723C763.723 146.729 763.722 146.735 763.723 146.74L763.724 146.754L763.724 146.76C763.725 146.765 763.725 146.771 763.726 146.777C763.726 146.781 763.726 146.786 763.726 146.79C763.726 146.797 763.726 146.804 763.726 146.811L763.725 146.82C763.722 147.608 763.641 148.4 763.561 149.194C763.539 149.409 763.517 149.624 763.497 149.839C763.605 149.561 763.715 149.284 763.825 149.007C764.238 147.966 764.649 146.928 764.973 145.857C765.327 144.698 765.627 143.528 765.9 142.351C765.981 142.006 766.06 141.654 766.127 141.303C766.295 140.535 766.434 139.76 766.564 138.985C766.665 138.399 766.758 137.81 766.838 137.221C766.962 136.339 767.062 135.459 767.14 134.57Z" fill="#2C65D6"/>
<path fill-rule="evenodd" clip-rule="evenodd" d="M723.478 60.0954C716.332 60.0561 710.486 65.8378 710.447 72.9797C710.408 80.1207 716.19 85.9706 723.334 86.0071C730.48 86.0463 736.324 80.2619 736.365 73.1215C736.405 65.981 730.622 60.1354 723.478 60.0954ZM723.346 84.1522C717.224 84.1172 712.27 79.1105 712.303 72.9903C712.337 66.8672 717.347 61.9158 723.468 61.9508C729.59 61.9823 734.542 66.9898 734.51 73.1135C734.476 79.2345 729.47 84.1857 723.346 84.1522Z" fill="#2C65D6"/>
</g>
</g>
</g>
</svg>
