<svg width="176" height="160" viewBox="0 0 176 160" fill="none" xmlns="http://www.w3.org/2000/svg">
<g id="Group 36">
<g id="Group 3">
<path id="Vector" fill-rule="evenodd" clip-rule="evenodd" d="M121.807 46.2913L120.843 41.8779C115.048 27.0133 105.533 13.6724 93.3341 3.30691C93.3341 3.30691 92.0129 2.18679 90.9552 1.28674C89.8901 2.17253 88.5575 3.27537 88.5575 3.27537C76.2443 13.5116 66.5857 26.7449 60.63 41.5499L59.0869 46.0154L65.7468 46.0154L116.159 46.2913L121.807 46.2913Z" fill="white"/>
<g id="Vector_2">
<path fill-rule="evenodd" clip-rule="evenodd" d="M91.1243 30.2758C89.1807 30.2643 87.5898 31.8378 87.5778 33.7837C87.5677 35.7265 89.1388 37.3132 91.0854 37.3267C93.0261 37.3362 94.6193 35.7668 94.63 33.8218C94.6407 31.8767 93.068 30.2873 91.1243 30.2758ZM89.434 33.7944C89.4281 34.7136 90.1749 35.4675 91.0955 35.4726C92.0139 35.4771 92.7697 34.7366 92.7754 33.8138C92.783 32.8881 92.0336 32.1393 91.1131 32.1342C90.1931 32.1269 89.4403 32.8694 89.434 33.7944Z" fill="#2C65D6"/>
<path fill-rule="evenodd" clip-rule="evenodd" d="M102.908 30.3405C100.96 30.3314 99.3724 31.9011 99.3626 33.8476C99.3511 35.7912 100.921 37.3787 102.87 37.3905C104.813 37.4007 106.404 35.8307 106.414 33.8878C106.425 31.9428 104.852 30.3534 102.908 30.3405ZM101.217 33.859C101.212 34.7796 101.956 35.5316 102.878 35.5395C103.8 35.5438 104.551 34.7985 104.559 33.8764C104.563 32.953 103.818 32.2018 102.897 32.2003C101.974 32.1932 101.22 32.9343 101.217 33.859Z" fill="#2C65D6"/>
<path fill-rule="evenodd" clip-rule="evenodd" d="M78.3989 30.2074C76.4596 30.197 74.8694 31.7684 74.8581 33.7156C74.848 35.6584 76.4191 37.2451 78.3636 37.258C80.308 37.2709 81.8961 35.699 81.909 33.7545C81.9167 31.8075 80.3432 30.2167 78.3989 30.2074ZM76.71 33.7251C76.7049 34.6457 77.4523 35.3975 78.3707 35.402C79.2948 35.4069 80.0484 34.6658 80.0555 33.7422C80.0604 32.8181 79.311 32.0693 78.3891 32.065C77.4698 32.0591 76.7162 32.8002 76.71 33.7251Z" fill="#2C65D6"/>
<path fill-rule="evenodd" clip-rule="evenodd" d="M121.802 46.296L120.838 41.8827C115.043 27.018 105.528 13.6772 93.3292 3.31166C93.3292 3.31166 92.0081 2.19155 90.9503 1.2915C89.8852 2.17729 88.5526 3.28013 88.5526 3.28013C76.2394 13.5163 66.5808 26.7496 60.6251 41.5547L59.082 46.0202L65.7419 46.0202L116.155 46.296L121.802 46.296ZM90.9089 8.69344C81.985 16.3923 74.666 25.7801 69.3203 36.2296C68.5187 37.7924 67.7566 39.3784 67.0497 40.9894C72.1318 41.0149 109.348 41.2211 114.421 41.25C113.279 38.5844 111.993 35.9825 110.608 33.4399C105.536 24.1475 98.8921 15.7292 90.9089 8.69344Z" fill="#2C65D6"/>
</g>
</g>
<g id="Group 4">
<path id="Vector_3" fill-rule="evenodd" clip-rule="evenodd" d="M131.421 98.7838L126.454 90.3641L126.53 89.7426C126.956 86.1272 127.176 82.5079 127.193 78.9977C127.251 68.9335 125.749 58.9755 122.724 49.3994C122.724 49.3994 122.24 47.9218 121.957 46.9667C121.374 44.9996 120.647 41.8791 120.647 41.8791L60.4339 41.5511L59.0642 46.6216L58.27 49.044C55.1455 58.5883 53.5299 68.5309 53.4761 78.5949C53.4544 82.2909 53.6585 86.1013 54.0922 89.9183L54.1612 90.5441L49.4493 98.3374C43.6904 107.853 40.6995 118.714 40.6382 129.65C40.6062 135.498 41.4086 141.369 43.0781 147.07C44.4531 151.758 46.3913 156.283 48.8476 160.527C48.8476 160.527 49.6561 161.925 50.3049 163.047C52.0445 162.538 56.0866 161.351 58.2697 160.711C57.5929 158.643 56.4423 155.126 56.4423 155.126C55.6013 152.257 55.1999 149.329 55.2148 146.427C55.2536 139.141 57.9354 132.007 62.9702 126.312L64.6915 124.362L65.9755 126.627L67.1464 128.66L68.6316 131.137L67.8257 132.143C64.4966 136.303 62.4473 141.274 61.9054 146.521C61.9054 146.521 61.6701 148.782 61.4789 150.591L117.428 150.898C117.259 149.089 117.052 146.828 117.052 146.828C116.585 141.834 114.774 137.061 111.8 133.031L111.064 132.023L112.974 128.918L114.337 126.603L115.723 124.468L117.412 126.387C122.491 132.155 125.153 139.383 125.112 146.792C125.095 149.748 124.65 152.731 123.756 155.661L121.954 160.967C123.53 161.493 125.496 162.148 125.496 162.148C125.496 162.148 128.254 162.995 129.86 163.484C130.519 162.369 131.347 160.978 131.347 160.978C133.84 156.78 135.832 152.275 137.262 147.587C138.995 141.909 139.861 136.05 139.893 130.202C139.951 119.261 137.077 108.368 131.421 98.7838Z" fill="white"/>
<g id="Vector_4">
<path fill-rule="evenodd" clip-rule="evenodd" d="M129.988 139.705C129.99 139.716 129.992 139.726 129.995 139.737C129.997 139.746 129.999 139.755 130.001 139.764C130.005 139.777 130.008 139.789 130.011 139.802C130.012 139.809 130.014 139.816 130.015 139.823C130.016 139.827 130.017 139.831 130.018 139.835C130.018 139.84 130.019 139.844 130.02 139.849L130.021 139.856C130.023 139.865 130.024 139.874 130.025 139.884C130.132 140.435 130.221 140.994 130.297 141.552C130.357 141.953 130.409 142.353 130.453 142.758L130.46 142.819C130.463 142.846 130.466 142.873 130.468 142.899C130.511 143.295 130.552 143.687 130.578 144.082C130.639 144.87 130.671 145.653 130.673 146.443C130.673 146.481 130.675 146.52 130.677 146.559C130.68 146.609 130.682 146.659 130.682 146.706C130.683 146.711 130.682 146.717 130.682 146.723C130.681 146.729 130.681 146.735 130.681 146.74C130.682 146.745 130.682 146.749 130.682 146.754L130.683 146.76C130.683 146.765 130.684 146.771 130.684 146.777C130.684 146.781 130.685 146.786 130.685 146.79C130.685 146.797 130.685 146.804 130.684 146.811L130.684 146.82C130.68 147.608 130.6 148.4 130.519 149.194C130.498 149.409 130.476 149.624 130.456 149.839C130.564 149.561 130.674 149.284 130.784 149.007C131.196 147.966 131.608 146.928 131.931 145.857C132.286 144.698 132.585 143.528 132.859 142.351C132.939 142.006 133.019 141.654 133.086 141.303C133.254 140.535 133.392 139.76 133.523 138.985C133.623 138.399 133.716 137.81 133.797 137.221C133.92 136.339 134.021 135.459 134.098 134.57M77.405 72.9797C77.4445 65.8378 83.2908 60.0562 90.4363 60.0954C97.5803 60.1355 103.363 65.981 103.323 73.1215C103.283 80.262 97.438 86.0464 90.2926 86.0071C83.1488 85.9706 77.3669 80.1207 77.405 72.9797ZM79.2612 72.9904C79.2289 79.1105 84.1823 84.1172 90.3041 84.1523C96.4286 84.1857 101.435 79.2345 101.468 73.1136C101.5 66.9898 96.5485 61.9823 90.4269 61.9509C84.3052 61.9158 79.2955 66.8672 79.2612 72.9904Z" fill="#2C65D6"/>
<path fill-rule="evenodd" clip-rule="evenodd" d="M131.421 98.7875L126.454 90.3677L126.53 89.7462C126.956 86.1309 127.176 82.5116 127.193 79.0013C127.251 68.9372 125.749 58.9792 122.724 49.403C122.724 49.403 122.24 47.9255 121.957 46.9703C121.374 45.0033 120.647 41.8827 120.647 41.8827L60.4339 41.5547L59.0642 46.6253L58.27 49.0477C55.1455 58.592 53.5299 68.5346 53.4761 78.5986C53.4544 82.2946 53.6585 86.1049 54.0922 89.922L54.1612 90.5478L49.4493 98.341C43.6904 107.857 40.6995 118.718 40.6382 129.654C40.6062 135.502 41.4086 141.372 43.0781 147.073C44.4531 151.762 46.3913 156.287 48.8476 160.53C48.8476 160.53 49.6561 161.929 50.3049 163.051C52.0445 162.541 56.0866 161.355 58.2697 160.714C57.5929 158.647 56.4423 155.129 56.4423 155.129C55.6013 152.26 55.1999 149.333 55.2148 146.431C55.2536 139.145 57.9354 132.01 62.9702 126.315L64.6915 124.366L65.9755 126.631L67.1464 128.664L68.6316 131.14L67.8257 132.147C64.4966 136.307 62.4473 141.278 61.9054 146.524C61.9054 146.524 61.6701 148.785 61.4789 150.595L117.428 150.901C117.259 149.093 117.052 146.832 117.052 146.832C116.585 141.838 114.774 137.065 111.8 133.035L111.064 132.026L112.974 128.922L114.337 126.606L115.723 124.472L117.412 126.391C122.491 132.159 125.153 139.386 125.112 146.795C125.095 149.752 124.65 152.735 123.756 155.665L121.954 160.971C123.53 161.497 125.496 162.152 125.496 162.152C125.496 162.152 128.254 162.998 129.86 163.488C130.519 162.372 131.347 160.981 131.347 160.981C133.84 156.784 135.832 152.279 137.262 147.591C138.995 141.913 139.861 136.054 139.893 130.206C139.951 119.264 137.077 108.372 131.421 98.7875ZM49.6591 146.322C49.6593 146.304 49.6593 146.282 49.6544 146.26C49.7034 137.933 56.0473 125.55 61.5797 118.964C60.9271 117.55 56.46 103.757 55.3228 99.2479C54.1325 101.657 49.8786 110.267 49.0348 112.798C47.6933 116.839 46.8076 121.007 46.4222 125.228L46.3938 125.509C46.2772 126.889 46.2057 128.279 46.2014 129.667C46.1803 134.95 46.9133 140.245 48.418 145.4C48.7502 146.528 49.1756 147.628 49.6001 148.726C49.6863 148.948 49.7725 149.171 49.8578 149.394C49.8402 149.194 49.8213 148.993 49.8025 148.793C49.7266 147.986 49.6505 147.176 49.654 146.377L49.6544 146.371C49.6549 146.367 49.6555 146.363 49.6562 146.358C49.6579 146.346 49.6598 146.333 49.6591 146.322ZM67.8396 144.95C69.3354 144.958 75.396 144.992 82.546 145.03C94.1798 145.094 108.698 145.173 111.13 145.188C110.976 144.388 110.777 143.599 110.538 142.828C109.736 140.238 108.467 137.815 106.741 135.652L72.3398 135.462C70.6788 137.502 69.4317 139.785 68.5984 142.223C68.4477 142.662 68.314 143.099 68.1871 143.541C68.1797 143.569 68.1723 143.598 68.1648 143.627C68.1495 143.686 68.1338 143.746 68.1175 143.806C68.016 144.187 67.923 144.566 67.8396 144.95ZM74.0928 130.427C76.159 130.439 104.15 130.592 106.216 130.603C117.606 115.736 121.534 95.1873 121.63 78.8808C121.639 76.7132 121.565 74.5566 121.421 72.4074C121.294 70.5336 121.097 68.6707 120.857 66.8127C120.791 66.3092 120.734 65.8022 120.66 65.2921C120.635 65.1698 120.601 65.0417 120.595 64.916C120.179 58.6837 117.259 50.5374 115.963 46.2961L65.5507 46.0202C63.2146 50.6296 60.9459 60.2075 60.2298 64.5843C60.2071 64.7103 60.1795 64.8374 60.1602 64.9597C60.0848 65.468 60.0215 65.9748 59.9486 66.478C59.685 68.3319 59.4676 70.1921 59.3227 72.0656C59.1506 74.2288 59.0533 76.3964 59.0403 78.5722C58.9637 94.8581 64.9013 115.445 74.0928 130.427ZM134.098 134.57C134.131 134.246 134.156 133.92 134.18 133.597C134.257 132.428 134.314 131.257 134.324 130.089C134.324 130.069 134.324 130.05 134.323 130.03C134.323 130.015 134.322 130 134.322 129.985C134.321 129.971 134.321 129.956 134.32 129.942C134.318 129.882 134.315 129.822 134.316 129.763C134.316 128.971 134.293 128.183 134.259 127.392C134.231 126.868 134.195 126.346 134.154 125.82C134.13 125.501 134.105 125.183 134.073 124.861C133.612 120.076 132.516 115.357 130.834 110.811C130.2 109.116 126.934 100.801 126.145 99.1598C124.53 105.275 121.923 114.691 119.216 120.416C123.125 125.18 128.836 133.895 129.988 139.705C129.99 139.716 129.992 139.726 129.995 139.737C129.997 139.746 129.999 139.755 130.001 139.764C130.005 139.777 130.008 139.789 130.011 139.802C130.012 139.809 130.014 139.816 130.015 139.823C130.016 139.827 130.017 139.831 130.018 139.835C130.018 139.84 130.019 139.844 130.02 139.849L130.021 139.856C130.023 139.865 130.024 139.874 130.025 139.884C130.132 140.435 130.221 140.994 130.297 141.552C130.357 141.953 130.409 142.353 130.453 142.758L130.46 142.819L130.468 142.899C130.511 143.295 130.552 143.687 130.578 144.082C130.639 144.87 130.671 145.653 130.673 146.443C130.673 146.481 130.675 146.52 130.677 146.559C130.68 146.609 130.682 146.659 130.682 146.706C130.683 146.711 130.682 146.717 130.682 146.723C130.681 146.729 130.681 146.735 130.681 146.74L130.682 146.754L130.683 146.76C130.683 146.765 130.684 146.771 130.684 146.777C130.684 146.781 130.685 146.786 130.685 146.79C130.685 146.797 130.685 146.804 130.684 146.811L130.684 146.82C130.68 147.608 130.6 148.4 130.519 149.194C130.498 149.409 130.476 149.624 130.456 149.839C130.564 149.561 130.674 149.284 130.784 149.007C131.196 147.966 131.608 146.928 131.931 145.857C132.286 144.698 132.585 143.528 132.859 142.351C132.939 142.006 133.019 141.654 133.086 141.303C133.254 140.535 133.392 139.76 133.523 138.985C133.623 138.399 133.716 137.81 133.797 137.221C133.92 136.339 134.021 135.459 134.098 134.57Z" fill="#2C65D6"/>
<path fill-rule="evenodd" clip-rule="evenodd" d="M90.4363 60.0954C83.2908 60.0562 77.4445 65.8378 77.405 72.9797C77.3669 80.1207 83.1488 85.9706 90.2926 86.0071C97.438 86.0464 103.283 80.262 103.323 73.1215C103.363 65.981 97.5803 60.1355 90.4363 60.0954ZM90.3041 84.1523C84.1823 84.1172 79.2289 79.1105 79.2612 72.9904C79.2955 66.8672 84.3052 61.9158 90.4269 61.9509C96.5485 61.9823 101.5 66.9898 101.468 73.1136C101.435 79.2345 96.4286 84.1857 90.3041 84.1523Z" fill="#2C65D6"/>
</g>
</g>
</g>
</svg>
