<svg width="1164" height="133" viewBox="0 0 1164 133" fill="none" xmlns="http://www.w3.org/2000/svg">
<path d="M584.742 60.9999H626.242C636.715 70.8906 634.589 108.01 638.742 109C657.163 109.563 669.294 119.391 679.242 126C685.126 110.51 699.742 105.5 714.242 107.533C712.754 71.4703 726.437 62.2423 757.742 50.9999C762.242 15.5 804.242 -1.50006 835.242 33.9999C873.71 7.26649 915.242 44.9998 915.242 61.9999C933.946 53.1232 943.747 52.1617 959.242 61.9999C969.959 -2.29217 1038.54 40.1371 1035.74 50.9999C1057.74 22.9998 1107.24 27.9998 1116.74 55.9998C1121.74 44.9998 1158.75 44.3242 1162.74 65.9998C1166.26 85.0988 1158.08 96.4627 1149.74 114C1109.27 199.077 909.242 133 909.242 133H766.242H496.242H222.742C222.742 133 27.3675 190.218 7.74165 108C2.8907 87.6777 -5.48663 70.6718 7.74165 54.4998C32.5501 24.1708 72.6813 48.3765 68.2416 54.4998C97.2417 16.4998 150.242 31.4999 160.242 67.9998C166.176 60.2816 202.477 39.0912 214.742 73.5C226.098 57.4727 234.831 54.4011 255.242 60.9999C255.242 45.4998 289.742 9.99982 328.242 31.4999C349.742 -13.5 399.866 -8.30983 412.242 40.4999C442.933 49.1424 455.119 58.1738 459.242 89C487.811 84.5462 494.539 93.3977 504.242 112C510.742 104 539.139 94.6444 550.742 104C562.595 93.8498 576.113 94.7004 581.242 95.5C581.064 99.1748 578.58 68.1011 584.742 60.9999Z" fill="#B3C9F5"/>
</svg>
