<svg width="176" height="160" viewBox="0 0 176 160" fill="none" xmlns="http://www.w3.org/2000/svg">
<g id="Group 1">
<g id="Group 3">
<path id="Vector" fill-rule="evenodd" clip-rule="evenodd" d="M121.807 46.2913L120.843 41.878C115.048 27.0133 105.533 13.6725 93.3341 3.30697C93.3341 3.30697 92.0129 2.18685 90.9552 1.2868C89.8901 2.17259 88.5575 3.27543 88.5575 3.27543C76.2443 13.5116 66.5857 26.7449 60.63 41.55L59.0869 46.0155L65.7468 46.0155L116.159 46.2913L121.807 46.2913Z" fill="white"/>
<g id="Vector_2">
<path fill-rule="evenodd" clip-rule="evenodd" d="M91.1243 30.2757C89.1807 30.2642 87.5898 31.8378 87.5778 33.7836C87.5676 35.7265 89.1388 37.3131 91.0854 37.3266C93.0261 37.3361 94.6193 35.7667 94.63 33.8217C94.6407 31.8767 93.068 30.2872 91.1243 30.2757ZM89.434 33.7943C89.4281 34.7135 90.1749 35.4674 91.0955 35.4725C92.0139 35.4771 92.7697 34.7366 92.7754 33.8138C92.783 32.888 92.0336 32.1393 91.1131 32.1342C90.1931 32.1269 89.4403 32.8693 89.434 33.7943Z" fill="#2C65D6"/>
<path fill-rule="evenodd" clip-rule="evenodd" d="M102.908 30.3404C100.96 30.3313 99.3724 31.9011 99.3626 33.8475C99.3511 35.7912 100.921 37.3786 102.87 37.3905C104.813 37.4006 106.404 35.8306 106.414 33.8878C106.425 31.9427 104.852 30.3533 102.908 30.3404ZM101.217 33.859C101.212 34.7796 101.956 35.5315 102.878 35.5394C103.8 35.5437 104.551 34.7985 104.559 33.8763C104.563 32.9529 103.818 32.2018 102.897 32.2002C101.974 32.1932 101.22 32.9343 101.217 33.859Z" fill="#2C65D6"/>
<path fill-rule="evenodd" clip-rule="evenodd" d="M78.3989 30.2073C76.4596 30.197 74.8694 31.7683 74.8581 33.7155C74.848 35.6584 76.4191 37.2451 78.3636 37.2579C80.308 37.2708 81.8961 35.6989 81.909 33.7544C81.9167 31.8074 80.3432 30.2166 78.3989 30.2073ZM76.71 33.7251C76.7049 34.6456 77.4523 35.3974 78.3707 35.4019C79.2948 35.4068 80.0484 34.6657 80.0555 33.7421C80.0604 32.818 79.311 32.0692 78.3891 32.0649C77.4698 32.059 76.7162 32.8001 76.71 33.7251Z" fill="#2C65D6"/>
<path fill-rule="evenodd" clip-rule="evenodd" d="M121.802 46.296L120.838 41.8826C115.043 27.018 105.528 13.6771 93.3292 3.3116C93.3292 3.3116 92.0081 2.19149 90.9503 1.29144C89.8852 2.17723 88.5526 3.28007 88.5526 3.28007C76.2394 13.5163 66.5808 26.7496 60.6251 41.5546L59.082 46.0201L65.7419 46.0201L116.155 46.296L121.802 46.296ZM90.9089 8.69338C81.985 16.3922 74.666 25.7801 69.3203 36.2296C68.5187 37.7923 67.7566 39.3783 67.0497 40.9894C72.1318 41.0148 109.348 41.2211 114.421 41.25C113.279 38.5843 111.993 35.9824 110.608 33.4398C105.536 24.1475 98.8921 15.7291 90.9089 8.69338Z" fill="#2C65D6"/>
</g>
</g>
<g id="Notify Form">
<g id="Rectangle 1" filter="url(#filter0_ii_10_288)">
<rect x="112" y="48" width="72" height="48" rx="6" transform="rotate(90 112 48)" fill="#EFEFEF"/>
</g>
<g id="Vector_3" filter="url(#filter1_di_10_288)">
<path d="M109 117.5L87 84L109 50.5" stroke="#2C65D6" stroke-width="3" stroke-linecap="round" stroke-linejoin="round" shape-rendering="crispEdges"/>
</g>
</g>
<g id="Group 4">
<path id="Vector_4" fill-rule="evenodd" clip-rule="evenodd" d="M131.421 98.7838L126.454 90.3641L126.53 89.7426C126.956 86.1272 127.176 82.5079 127.193 78.9977C127.251 68.9335 125.749 58.9755 122.724 49.3994C122.724 49.3994 122.24 47.9218 121.957 46.9667C121.374 44.9996 120.647 41.8791 120.647 41.8791L60.4339 41.5511L59.0642 46.6216L58.27 49.044C55.1455 58.5883 53.5299 68.5309 53.4761 78.5949C53.4544 82.2909 53.6585 86.1013 54.0922 89.9183L54.1612 90.5441L49.4493 98.3374C43.6904 107.853 40.6995 118.714 40.6382 129.65C40.6062 135.498 41.4086 141.369 43.0781 147.07C44.4531 151.758 46.3913 156.283 48.8476 160.527C48.8476 160.527 49.6561 161.925 50.3049 163.047C52.0445 162.538 56.0866 161.351 58.2697 160.711C57.5929 158.643 56.4423 155.126 56.4423 155.126C55.6013 152.257 55.1999 149.329 55.2148 146.427C55.2536 139.141 57.9354 132.007 62.9702 126.312L64.6915 124.362L65.9755 126.627L67.1464 128.66L68.6316 131.137L67.8257 132.143C64.4966 136.303 62.4473 141.274 61.9054 146.521C61.9054 146.521 61.6701 148.782 61.4789 150.591L117.428 150.898C117.259 149.089 117.052 146.828 117.052 146.828C116.585 141.834 114.774 137.061 111.8 133.031L111.064 132.023L112.974 128.918L114.337 126.603L115.723 124.468L117.412 126.387C122.491 132.155 125.153 139.383 125.112 146.792C125.095 149.748 124.65 152.731 123.756 155.661L121.954 160.967C123.53 161.493 125.496 162.148 125.496 162.148C125.496 162.148 128.254 162.995 129.86 163.484C130.519 162.369 131.347 160.978 131.347 160.978C133.84 156.78 135.832 152.275 137.262 147.587C138.995 141.909 139.861 136.05 139.893 130.202C139.951 119.261 137.077 108.368 131.421 98.7838Z" fill="white"/>
<g id="Vector_5">
<path fill-rule="evenodd" clip-rule="evenodd" d="M129.988 139.705C129.99 139.716 129.992 139.726 129.995 139.737C129.997 139.746 129.999 139.755 130.001 139.764C130.005 139.777 130.008 139.789 130.011 139.802C130.012 139.809 130.014 139.816 130.015 139.823C130.016 139.827 130.017 139.831 130.018 139.835C130.019 139.84 130.019 139.844 130.02 139.849L130.021 139.856C130.023 139.865 130.024 139.874 130.025 139.884C130.132 140.435 130.221 140.994 130.297 141.552C130.357 141.953 130.409 142.353 130.453 142.758L130.46 142.819C130.463 142.846 130.466 142.873 130.468 142.899C130.511 143.295 130.552 143.687 130.578 144.082C130.639 144.87 130.671 145.653 130.673 146.443C130.673 146.481 130.675 146.52 130.677 146.559C130.68 146.609 130.682 146.659 130.682 146.706C130.683 146.711 130.682 146.717 130.682 146.723C130.681 146.729 130.681 146.735 130.681 146.74C130.682 146.745 130.682 146.749 130.682 146.754L130.683 146.76C130.683 146.765 130.684 146.771 130.684 146.777C130.684 146.781 130.685 146.786 130.685 146.79C130.685 146.797 130.685 146.804 130.684 146.811L130.684 146.82C130.68 147.608 130.6 148.4 130.519 149.194C130.498 149.409 130.476 149.624 130.456 149.839C130.564 149.561 130.674 149.284 130.784 149.007C131.196 147.966 131.608 146.928 131.931 145.857C132.286 144.698 132.585 143.528 132.859 142.351C132.939 142.006 133.019 141.654 133.086 141.303C133.254 140.535 133.392 139.76 133.523 138.985C133.623 138.399 133.716 137.81 133.797 137.221C133.92 136.339 134.021 135.459 134.098 134.57M77.405 72.9797C77.4445 65.8378 83.2908 60.0562 90.4363 60.0954C97.5803 60.1355 103.363 65.981 103.323 73.1215C103.283 80.262 97.438 86.0464 90.2926 86.0071C83.1488 85.9706 77.3669 80.1207 77.405 72.9797ZM79.2612 72.9904C79.2289 79.1105 84.1823 84.1172 90.3041 84.1523C96.4286 84.1857 101.435 79.2345 101.468 73.1136C101.5 66.9898 96.5485 61.9823 90.4269 61.9509C84.3052 61.9158 79.2955 66.8672 79.2612 72.9904Z" fill="#2C65D6"/>
<path fill-rule="evenodd" clip-rule="evenodd" d="M131.421 98.7875L126.454 90.3677L126.53 89.7462C126.956 86.1309 127.176 82.5116 127.193 79.0013C127.251 68.9371 125.749 58.9792 122.724 49.403C122.724 49.403 122.24 47.9255 121.957 46.9703C121.374 45.0033 120.647 41.8827 120.647 41.8827L60.4339 41.5547L59.0642 46.6253L58.27 49.0477C55.1455 58.592 53.5299 68.5346 53.4761 78.5986C53.4544 82.2946 53.6585 86.1049 54.0922 89.922L54.1612 90.5478L49.4493 98.341C43.6904 107.857 40.6995 118.718 40.6382 129.654C40.6062 135.502 41.4086 141.372 43.0781 147.073C44.4531 151.762 46.3913 156.287 48.8476 160.53C48.8476 160.53 49.6561 161.929 50.3049 163.051C52.0445 162.541 56.0866 161.355 58.2697 160.714C57.5929 158.647 56.4423 155.129 56.4423 155.129C55.6013 152.26 55.1999 149.333 55.2148 146.431C55.2536 139.145 57.9354 132.01 62.9702 126.315L64.6915 124.366L65.9755 126.631L67.1464 128.664L68.6316 131.14L67.8257 132.147C64.4966 136.307 62.4473 141.278 61.9054 146.524C61.9054 146.524 61.6701 148.785 61.4789 150.595L117.428 150.901C117.259 149.093 117.052 146.832 117.052 146.832C116.585 141.838 114.774 137.065 111.8 133.035L111.064 132.026L112.974 128.922L114.337 126.606L115.723 124.472L117.412 126.391C122.491 132.159 125.153 139.386 125.112 146.795C125.095 149.752 124.65 152.735 123.756 155.665L121.954 160.971C123.53 161.497 125.496 162.152 125.496 162.152C125.496 162.152 128.254 162.998 129.86 163.488C130.519 162.372 131.347 160.981 131.347 160.981C133.84 156.784 135.832 152.279 137.262 147.591C138.995 141.913 139.861 136.054 139.893 130.206C139.951 119.264 137.077 108.372 131.421 98.7875ZM49.6591 146.322C49.6593 146.304 49.6593 146.282 49.6544 146.26C49.7034 137.933 56.0473 125.551 61.5797 118.964C60.9271 117.55 56.46 103.757 55.3228 99.2479C54.1325 101.657 49.8786 110.267 49.0348 112.798C47.6933 116.839 46.8076 121.007 46.4222 125.228L46.3938 125.509C46.2772 126.889 46.2057 128.279 46.2014 129.667C46.1803 134.95 46.9133 140.245 48.418 145.4C48.7502 146.528 49.1756 147.628 49.6001 148.726C49.6863 148.948 49.7725 149.171 49.8578 149.394C49.8402 149.194 49.8213 148.993 49.8025 148.793C49.7266 147.986 49.6505 147.176 49.654 146.377L49.6544 146.371C49.6549 146.367 49.6555 146.363 49.6562 146.358C49.6579 146.346 49.6598 146.333 49.6591 146.322ZM67.8396 144.95C69.3354 144.958 75.396 144.992 82.546 145.03C94.1798 145.094 108.698 145.173 111.13 145.188C110.976 144.388 110.777 143.599 110.538 142.828C109.736 140.238 108.467 137.815 106.741 135.652L72.3398 135.462C70.6788 137.502 69.4317 139.785 68.5984 142.223C68.4477 142.662 68.314 143.099 68.1871 143.541C68.1797 143.569 68.1723 143.598 68.1648 143.627C68.1495 143.686 68.1338 143.746 68.1175 143.806C68.016 144.187 67.923 144.566 67.8396 144.95ZM74.0928 130.427C76.159 130.439 104.15 130.592 106.216 130.603C117.606 115.736 121.534 95.1873 121.63 78.8808C121.639 76.7132 121.565 74.5566 121.421 72.4074C121.294 70.5336 121.097 68.6707 120.857 66.8127C120.791 66.3092 120.734 65.8022 120.66 65.2921C120.635 65.1698 120.601 65.0417 120.595 64.916C120.179 58.6837 117.259 50.5374 115.963 46.2961L65.5507 46.0202C63.2146 50.6296 60.9459 60.2075 60.2298 64.5843C60.2071 64.7103 60.1795 64.8374 60.1602 64.9597C60.0848 65.468 60.0215 65.9748 59.9486 66.478C59.685 68.3319 59.4676 70.1921 59.3227 72.0656C59.1506 74.2288 59.0533 76.3964 59.0403 78.5722C58.9637 94.8581 64.9013 115.445 74.0928 130.427ZM134.098 134.57C134.131 134.246 134.156 133.92 134.18 133.597C134.257 132.428 134.314 131.257 134.324 130.089C134.324 130.069 134.324 130.05 134.323 130.03C134.323 130.015 134.322 130 134.322 129.985C134.321 129.971 134.321 129.956 134.32 129.942C134.318 129.882 134.315 129.822 134.316 129.763C134.316 128.971 134.293 128.183 134.259 127.392C134.231 126.868 134.195 126.346 134.154 125.82C134.13 125.501 134.105 125.183 134.073 124.861C133.612 120.076 132.516 115.357 130.834 110.811C130.2 109.116 126.934 100.801 126.145 99.1598C124.53 105.275 121.923 114.691 119.216 120.416C123.125 125.18 128.836 133.895 129.988 139.705C129.99 139.716 129.992 139.726 129.995 139.737C129.997 139.746 129.999 139.755 130.001 139.764C130.005 139.777 130.008 139.789 130.011 139.802C130.012 139.809 130.014 139.816 130.015 139.823C130.016 139.827 130.017 139.831 130.018 139.835C130.019 139.84 130.019 139.844 130.02 139.849L130.021 139.856C130.023 139.865 130.024 139.874 130.025 139.884C130.132 140.435 130.221 140.994 130.297 141.552C130.357 141.953 130.409 142.353 130.453 142.758L130.46 142.819L130.468 142.899C130.511 143.295 130.552 143.687 130.578 144.082C130.639 144.87 130.671 145.653 130.673 146.443C130.673 146.481 130.675 146.52 130.677 146.559C130.68 146.609 130.682 146.659 130.682 146.706C130.683 146.711 130.682 146.717 130.682 146.723C130.681 146.729 130.681 146.735 130.681 146.74L130.682 146.754L130.683 146.76C130.683 146.765 130.684 146.771 130.684 146.777C130.684 146.781 130.685 146.786 130.685 146.79C130.685 146.797 130.685 146.804 130.684 146.811L130.684 146.82C130.68 147.608 130.6 148.4 130.519 149.194C130.498 149.409 130.476 149.624 130.456 149.839C130.564 149.561 130.674 149.284 130.784 149.007C131.196 147.966 131.608 146.928 131.931 145.857C132.286 144.698 132.585 143.528 132.859 142.351C132.939 142.006 133.019 141.654 133.086 141.303C133.254 140.535 133.392 139.76 133.523 138.985C133.623 138.399 133.716 137.81 133.797 137.221C133.92 136.339 134.021 135.459 134.098 134.57Z" fill="#2C65D6"/>
<path fill-rule="evenodd" clip-rule="evenodd" d="M90.4363 60.0954C83.2908 60.0562 77.4445 65.8378 77.405 72.9797C77.3669 80.1207 83.1488 85.9706 90.2926 86.0071C97.438 86.0464 103.283 80.262 103.323 73.1215C103.363 65.981 97.5803 60.1355 90.4363 60.0954ZM90.3041 84.1523C84.1823 84.1172 79.2289 79.1105 79.2612 72.9904C79.2955 66.8672 84.3052 61.9158 90.4269 61.9509C96.5485 61.9823 101.5 66.9898 101.468 73.1136C101.435 79.2345 96.4286 84.1857 90.3041 84.1523Z" fill="#2C65D6"/>
</g>
</g>
<g id="Group 36">
<g id="Group">
<path id="Vector_6" d="M91.2923 179C91.169 179 91.0368 178.995 90.9046 178.98L90.6716 178.959L90.5214 178.754C89.8447 177.86 89.9142 176.725 89.9803 175.636C90.0206 174.976 90.0643 174.296 89.9366 173.697C89.773 172.947 89.2856 170.679 88.8766 170.679C88.406 170.679 87.2049 172.018 86.7557 172.527C86.2055 173.142 85.7305 173.427 85.2554 173.427C84.4632 173.427 84.0498 172.628 83.7462 172.037L83.5882 171.738C82.1361 169.119 81.8986 166.061 82.8577 162.382C82.9809 161.922 83.2274 161.482 83.4605 161.053C83.7417 160.553 84.0543 159.988 83.9714 159.679C83.9232 159.493 83.6991 159.293 83.3417 159.119C83.1568 159.025 82.9809 158.975 82.8274 158.975C82.0319 158.975 81.5031 160.414 81.1165 161.468C80.9137 162.033 80.7031 162.593 80.4734 163.203L79.7126 165.241L79.2107 163.778C76.9451 157.206 77.6969 154.218 82.8498 149.22L83.0089 149.071L96.3443 149L96.49 149.111C98.3813 150.535 99.7773 152.708 100.759 155.742C100.803 155.877 100.974 156.162 101.129 156.417C101.62 157.237 102.303 158.355 101.853 159.335C101.51 160.091 100.634 160.455 99.1039 160.475C98.9807 160.475 98.937 160.501 98.937 160.501C98.937 160.661 99.263 161.455 99.421 161.846C99.5275 162.106 99.6283 162.35 99.6989 162.561C99.83 162.971 99.9801 163.371 100.135 163.775C100.751 165.425 101.455 167.299 100.82 169.593L100.631 170.272L100.054 169.982C98.9325 169.422 98.0037 169.132 97.2956 169.132C95.606 169.132 95.2978 170.771 94.9292 173.45C94.5931 175.921 94.1707 178.995 91.2923 179ZM91.2531 177.716C91.2665 177.716 91.2788 177.721 91.2923 177.721C93.1141 177.716 93.439 176.021 93.8177 173.253C94.1438 170.847 94.5527 167.85 97.2944 167.85C98.025 167.85 98.8787 168.069 99.8905 168.513C100.11 166.98 99.6126 165.66 99.0939 164.27C98.9348 163.852 98.7768 163.432 98.6412 163.002C98.5785 162.821 98.4911 162.606 98.3981 162.382C98.0339 161.494 97.625 160.493 98.025 159.773C98.165 159.513 98.4653 159.204 99.0849 159.194C100.611 159.173 100.832 158.784 100.853 158.743C100.99 158.444 100.453 157.564 100.197 157.133C99.9779 156.773 99.793 156.464 99.7011 156.179C98.8294 153.485 97.6205 151.55 96.0048 150.276L83.4257 150.348C79.1445 154.526 78.3087 156.845 79.7742 161.803C79.8751 161.523 79.977 161.253 80.0779 160.973C80.5888 159.593 81.2835 157.695 82.8274 157.695C83.14 157.695 83.4649 157.785 83.7955 157.949C84.4857 158.294 84.8946 158.734 85.0492 159.303C85.2823 160.174 84.8195 161.002 84.4162 161.743C84.2179 162.092 84.0162 162.462 83.9411 162.752C83.0649 166.095 83.2543 168.734 84.5394 171.052L84.7198 171.393C84.8789 171.692 85.112 172.148 85.2565 172.148C85.2957 172.148 85.512 172.123 85.9646 171.619C87.2486 170.178 88.0934 169.399 88.8778 169.399C90.0789 169.399 90.527 171.059 91.029 173.393C91.2004 174.188 91.1511 175.008 91.1074 175.727C91.0548 176.52 91.0155 177.22 91.2531 177.716Z" fill="#2C65D6" fill-opacity="0.68"/>
</g>
<g id="Group_2">
<path id="Vector_7" d="M90.5385 161C90.4871 161 90.432 160.998 90.3769 160.993L90.2798 160.985L90.2173 160.91C89.9353 160.582 89.9642 160.166 89.9918 159.767C90.0086 159.524 90.0268 159.275 89.9736 159.056C89.9054 158.781 89.7023 157.949 89.5319 157.949C89.3359 157.949 88.8354 158.44 88.6482 158.627C88.419 158.852 88.221 158.957 88.0231 158.957C87.693 158.957 87.5208 158.664 87.3942 158.447L87.3284 158.337C86.7234 157.377 86.6244 156.256 87.024 154.907C87.0754 154.738 87.1781 154.577 87.2752 154.42C87.3924 154.236 87.5226 154.029 87.4881 153.916C87.468 153.847 87.3746 153.774 87.2257 153.71C87.1487 153.676 87.0754 153.657 87.0114 153.657C86.68 153.657 86.4596 154.185 86.2985 154.572C86.214 154.779 86.1263 154.984 86.0306 155.208L85.7136 155.955L85.5044 155.419C84.5605 153.009 84.8737 151.913 87.0208 150.081L87.0871 150.026L92.6435 150L92.7042 150.041C93.4922 150.563 94.0739 151.36 94.4828 152.472C94.5011 152.522 94.5725 152.626 94.6369 152.72C94.8418 153.02 95.1262 153.43 94.939 153.79C94.7956 154.067 94.431 154.2 93.7933 154.208C93.742 154.208 93.7238 154.217 93.7238 154.217C93.7238 154.276 93.8596 154.567 93.9254 154.71C93.9698 154.805 94.0118 154.895 94.0412 154.972C94.0958 155.123 94.1584 155.269 94.2228 155.418C94.4796 156.022 94.7728 156.71 94.5085 157.551L94.4296 157.8L94.1892 157.693C93.7219 157.488 93.3349 157.382 93.0398 157.382C92.3358 157.382 92.2074 157.983 92.0538 158.965C91.9138 159.871 91.7378 160.998 90.5385 161ZM90.5221 160.529C90.5277 160.529 90.5329 160.531 90.5385 160.531C91.2975 160.529 91.4329 159.908 91.5907 158.893C91.7266 158.011 91.897 156.912 93.0394 156.912C93.3437 156.912 93.6995 156.992 94.121 157.155C94.2125 156.593 94.0053 156.109 93.7891 155.599C93.7228 155.446 93.657 155.292 93.6005 155.134C93.5744 155.068 93.5379 154.989 93.4992 154.907C93.3475 154.581 93.1771 154.214 93.3437 153.95C93.4021 153.855 93.5272 153.741 93.7854 153.738C94.4212 153.73 94.5132 153.587 94.5221 153.573C94.579 153.463 94.3554 153.14 94.249 152.982C94.1575 152.85 94.0804 152.737 94.0421 152.632C93.6789 151.644 93.1752 150.935 92.502 150.468L87.2607 150.494C85.4769 152.026 85.1286 152.876 85.7393 154.694C85.7813 154.592 85.8238 154.493 85.8658 154.39C86.0787 153.884 86.3681 153.188 87.0114 153.188C87.1417 153.188 87.2771 153.221 87.4148 153.281C87.7024 153.408 87.8728 153.569 87.9372 153.778C88.0343 154.097 87.8415 154.401 87.6734 154.672C87.5908 154.8 87.5067 154.936 87.4755 155.042C87.1104 156.268 87.1893 157.236 87.7248 158.086L87.7999 158.211C87.8662 158.321 87.9633 158.488 88.0235 158.488C88.0399 158.488 88.13 158.478 88.3186 158.294C88.8536 157.765 89.2056 157.48 89.5324 157.48C90.0329 157.48 90.2196 158.088 90.4287 158.944C90.5002 159.236 90.4796 159.536 90.4614 159.8C90.4395 160.091 90.4231 160.347 90.5221 160.529Z" fill="#2C65D6" fill-opacity="0.68"/>
</g>
</g>
</g>
<defs>
<filter id="filter0_ii_10_288" x="60" y="44" width="56" height="80" filterUnits="userSpaceOnUse" color-interpolation-filters="sRGB">
<feFlood flood-opacity="0" result="BackgroundImageFix"/>
<feBlend mode="normal" in="SourceGraphic" in2="BackgroundImageFix" result="shape"/>
<feColorMatrix in="SourceAlpha" type="matrix" values="0 0 0 0 0 0 0 0 0 0 0 0 0 0 0 0 0 0 127 0" result="hardAlpha"/>
<feOffset dx="4" dy="4"/>
<feGaussianBlur stdDeviation="4"/>
<feComposite in2="hardAlpha" operator="arithmetic" k2="-1" k3="1"/>
<feColorMatrix type="matrix" values="0 0 0 0 1 0 0 0 0 1 0 0 0 0 1 0 0 0 0.8 0"/>
<feBlend mode="normal" in2="shape" result="effect1_innerShadow_10_288"/>
<feColorMatrix in="SourceAlpha" type="matrix" values="0 0 0 0 0 0 0 0 0 0 0 0 0 0 0 0 0 0 127 0" result="hardAlpha"/>
<feOffset dx="-4" dy="-4"/>
<feGaussianBlur stdDeviation="4"/>
<feComposite in2="hardAlpha" operator="arithmetic" k2="-1" k3="1"/>
<feColorMatrix type="matrix" values="0 0 0 0 0 0 0 0 0 0 0 0 0 0 0 0 0 0 0.15 0"/>
<feBlend mode="normal" in2="effect1_innerShadow_10_288" result="effect2_innerShadow_10_288"/>
</filter>
<filter id="filter1_di_10_288" x="83" y="46.9998" width="31.0001" height="76.0004" filterUnits="userSpaceOnUse" color-interpolation-filters="sRGB">
<feFlood flood-opacity="0" result="BackgroundImageFix"/>
<feColorMatrix in="SourceAlpha" type="matrix" values="0 0 0 0 0 0 0 0 0 0 0 0 0 0 0 0 0 0 127 0" result="hardAlpha"/>
<feOffset dx="0.5" dy="1"/>
<feGaussianBlur stdDeviation="1.5"/>
<feComposite in2="hardAlpha" operator="out"/>
<feColorMatrix type="matrix" values="0 0 0 0 0 0 0 0 0 0 0 0 0 0 0 0 0 0 0.25 0"/>
<feBlend mode="normal" in2="BackgroundImageFix" result="effect1_dropShadow_10_288"/>
<feBlend mode="normal" in="SourceGraphic" in2="effect1_dropShadow_10_288" result="shape"/>
<feColorMatrix in="SourceAlpha" type="matrix" values="0 0 0 0 0 0 0 0 0 0 0 0 0 0 0 0 0 0 127 0" result="hardAlpha"/>
<feOffset dx="1" dy="1"/>
<feGaussianBlur stdDeviation="2"/>
<feComposite in2="hardAlpha" operator="arithmetic" k2="-1" k3="1"/>
<feColorMatrix type="matrix" values="0 0 0 0 1 0 0 0 0 1 0 0 0 0 1 0 0 0 0.35 0"/>
<feBlend mode="normal" in2="shape" result="effect2_innerShadow_10_288"/>
</filter>
</defs>
</svg>
